<svg width="85" height="94" viewBox="0 0 85 94" fill="none" xmlns="http://www.w3.org/2000/svg">
<path fill-rule="evenodd" clip-rule="evenodd" d="M3.9853 65.0528L5.95554 68.3523L9.38766 71.5021L8.65465 75.0751L16.7758 74.6191L22.4215 79.9504L21.4679 83.1699L25.894 86.3812L31.7156 85.9273L39.99 80.6564L46.174 85.0266L44.473 88.6293L49.2086 92.4933L51.4418 93.394L53.997 90.943L56.3369 89.1611L60.2059 91.5732L65.9116 91.9544L69.3551 90.2883L75.4864 84.6085L76.8188 80.8009L74.5629 77.7371L78.0685 74.2646L76.2225 70.1311L78.6152 67.76L78.0229 62.5434L71.8555 58.5811L71.2177 55.4282L74.7927 50.3161L72.2717 45.0822L76.6998 41.1075L76.0827 31.5412L73.9945 30.2686L73.7315 25.6966L75.7069 21.9596L81.8443 18.9205L81.7677 15.1169L84.1552 12.7561L79.8689 8.43406L82.1115 0.781881L76.971 0.328979L70.3884 6.24231L67.1633 4.87438L63.7519 7.1768L58.9231 3.1673L53.585 3.30255L52.5372 13.3514L46.5706 16.3844L42.2367 15.5893L39.9879 14.1066L24.8866 13.375L21.2961 17.7308L19.273 14.5636H14.4297L13.5745 18.2421L7.3522 24.2508L5.18836 32.0351L2.75843 32.6376L1.64234 36.2219L1.78419 39.5439L3.61155 41.0511L3.61051 45.5279L5.6232 46.9081L4.76077 51.8603L0.141113 52.5304L4.95334 58.9008L3.9853 65.0528Z" fill="#5C5DF7"/>
</svg>
