<svg width="77" height="103" viewBox="0 0 77 103" fill="none" xmlns="http://www.w3.org/2000/svg">
<path fill-rule="evenodd" clip-rule="evenodd" d="M74.7833 44.336L68.7577 44.0891L67.7948 39.555L63.3729 39.3183L60.7504 33.8148L56.5304 34.4347L54.6678 32.6918L56.2426 29.9026L54.674 27.0766L50.7853 25.4751L48.5045 19.6263L49.1568 14.4691L48.7685 9.47699L45.9949 5.84456L41.3845 5.32915L37.825 7.83241L33.2292 8.61935L32.0417 6.52494L28.0443 5.53306L27.9594 2.75725L27.2005 2.0574L25.0594 4.01349L21.913 0.0388184L19.3589 3.45607L18.631 7.30573L12.6375 13.3164L11.1394 16.2838L8.73429 14.4538H5.93165L3.51933 16.5943L1.17223 15.6383L1.35652 21.9933L3.56178 22.4472L4.36519 25.765L7.026 24.0825L8.9776 26.0161L6.77959 29.7817L7.00943 36.5506L10.4757 38.4637L10.3846 43.1792L9.22608 43.9897L10.2718 45.3002L9.24264 49.2831L4.99157 49.1868L4.12189 47.4633L0.548961 47.7318L0.052002 52.3786L2.57511 54.6144L0.379167 56.676L2.60202 61.5166L7.01771 65.8878L8.78296 69.6063L13.8768 69.762L18.1009 73.1403L22.9763 74.579L22.0663 80.0906L18.8308 81.1255L18.0098 84.5397L13.8706 84.8574L13.3923 88.5226L17.634 91.5996L22.3437 94.3099L21.327 98.5151L18.2811 99.7539L18.455 102.515L23.8584 98.9526L26.7273 97.9505L28.7742 99.5736L33.9063 90.2891L36.9295 89.2368L38.4991 90.9418L41.8535 90.6733L43.2222 88.7121L52.0795 88.5543L53.6884 91.7359L55.2559 87.0747L53.5372 83.055L57.1464 79.4799L53.0817 78.3313L55.8905 73.5861V64.5926L60.8953 61.8752L64.9642 61.2768L69.2691 58.2971L70.8118 49.7452L76.3673 49.1663L76.005 45.6742L74.7833 44.336Z" fill="#5C5DF7"/>
</svg>
