<svg width="76" height="96" viewBox="0 0 76 96" fill="none" xmlns="http://www.w3.org/2000/svg">
<path fill-rule="evenodd" clip-rule="evenodd" d="M12.7304 11.0446L10.8544 9.58346L10.9206 13.4833L8.48656 15.2724L9.18437 18.1845L6.80414 22.0014L6.22125 25.7035L1.51256 28.3871L1.36658 32.5318L2.7798 34.7564L1.81073 37.0752L3.92074 40.8511L1.73619 44.4302L0.980396 47.87L3.28505 53.0773L0.947266 55.8552L5.79573 61.1824L9.05703 64.1888L11.5377 62.4346L13.0948 68.227L12.66 73.7786L10.1307 74.5071L9.03321 79.7329L13.071 83.8869L17.2123 87.0019L20.2717 85.9414L25.4267 86.0233L29.8703 84.8009L32.8717 86.2447L35.662 83.5631L40.1688 85.2989L43.6796 84.9269L46.6437 82.0681L50.7737 81.5138L51.6516 87.6013L50.7913 91.7061L52.9634 95.0045H59.2603L64.0125 92.2963L66.8772 92.4244L65.3739 89.6455V85.2774L71.8831 82.7895L75.0678 79.4409L72.9495 77.1446L72.204 74.1915L74.3316 71.4229L73.6959 66.0977L72.0456 63.158L71.2029 59.1987L66.4207 58.0439L68.8858 52.2392L67.5171 48.5094L70.8871 45.2858L70.3953 41.6903L67.779 40.392L69.0639 37.6254L65.6442 33.5637L68.1331 31.335L67.9354 27.3132L62.065 24.3509L61.8145 20.4982L65.4133 16.8299L64.4183 14.1401L62.2659 13.7979L59.1816 9.45742L59.6361 4.49908L57.5758 1.36771L55.3902 1.25089L53.2761 6.03197H49.1492L47.5134 8.86722L47.15 14.4711L43.1422 10.1214L42.6991 4.87308L37.8362 3.40371L35.3545 6.50844L31.4275 0.378906L28.3805 4.496L23.4834 5.33213L21.1632 1.11871L19.7313 6.92241L17.0042 8.54035L15.4688 7.16013L12.7304 11.0446Z" fill="#5C5DF7"/>
</svg>
