<svg width="115" height="72" viewBox="0 0 115 72" fill="none" xmlns="http://www.w3.org/2000/svg">
<path fill-rule="evenodd" clip-rule="evenodd" d="M108.25 47.8582L100.657 44.6459L102.248 40.6231L97.8922 39.1281L103.024 33.1358L100.917 29.112L96.0017 27.3783L96.4283 23.92L93.3927 19.1789V13.5433L91.761 11.1783L89.8011 14.0115L85.6039 11.4242V6.55505L83.4483 3.68906L78.6392 2.09981L72.9552 3.19518L65.5785 4.34382L61.6111 0.491089L55.7832 5.20454L54.2519 2.16846L49.6375 0.745205L47.7935 1.03519L49.5526 2.2699L49.828 7.7662L47.0419 8.05413L47.8546 9.4487L49.2316 10.5574L49.5712 17.2003L48.3392 18.7967L44.2848 20.056L42.6448 23.1618L46.8431 25.5011L47.7552 28.7113L45.6297 29.0495V32.1419L41.6934 32.8582V36.0397L36.3283 36.9589L34.7753 33.9627H31.7645L30.4196 36.0018L26.1106 36.5428L25.5525 39.0338L22.5024 36.9671L21.2952 38.2233L20.2527 40.3792L14.3254 40.911L15.1568 43.0802L19.9069 46.7854L24.3163 46.1583L24.8061 47.4453L30.8948 48.2619L26.7007 54.0359L21.7384 50.5459L15.6765 50.1073L7.66405 49.9526L5.17512 48.3603L0.825684 50.0049L4.28369 54.1875L8.69939 51.8544L13.0188 53.8371L17.6881 53.043L18.6489 56.8271L12.8148 59.1387L10.0422 58.1305L7.87319 60.274L8.44262 61.8449L12.9567 62.4033L17.8455 61.7783L20.879 65.3851L23.8349 65.0766L26.2638 70.0319L31.0325 69.6139L36.5219 67.1987L41.8849 67.6567L48.0244 67.3668L49.9553 64.5889L51.498 67.0286L55.1599 62.4556L56.5193 67.9969L60.0819 68.4191L62.341 69.7163L65.4687 66.9682L65.4729 66.9764L69.1369 63.0919L71.542 59.4328L74.3685 62.3808L76.9444 60.1296L81.4947 64.9229L85.0313 57.7698L89.7711 64.5746L91.4918 61.7332L94.9705 64.4864L96.6364 66.4999L94.7593 68.2008L96.6954 71.7749L99.2692 71.0463L100.243 67.1998L99.4266 63.4761L102.836 62.1625L104.545 64.4168L103.74 67.1239V69.3454L106.058 70.6764L107.699 68.6753L108.129 64.9988L107.056 61.3561L108.358 56.9377L110.425 58.8108L114.017 55.909L112.268 48.6841L108.25 47.8582Z" fill="#5C5DF7"/>
</svg>
