<svg width="83" height="107" viewBox="0 0 83 107" fill="none" xmlns="http://www.w3.org/2000/svg">
<path fill-rule="evenodd" clip-rule="evenodd" d="M0.315918 12.7827L0.505384 15.7275L6.38296 18.6898L6.63041 23.6595L4.46449 25.5951L7.69369 29.4293L6.53723 31.9234L8.79736 33.0423L9.41545 37.5621L6.13759 40.6986L7.42865 44.206L5.23685 49.3662L9.53762 50.4042L10.4736 54.7816L12.1446 57.7623L12.8424 63.6213L10.7572 66.3367L11.3412 68.6442L13.8746 71.3934L9.96625 75.4992L3.84743 77.8406V81.3654L5.58369 84.5644L7.63675 86.2397L4.99976 88.3977L6.89338 90.4204L5.84977 92.5681L6.72669 93.5118L6.63455 95.9361L4.60012 98.0203L11.1289 103.563L11.2687 106.256L15.0673 106.189L17.1535 102.139L19.4219 102.053L23.5477 98.3994L25.5407 101.326L27.337 101.249L30.5787 102.89L31.9712 98.5285L36.6788 98.8554L39.1295 96.0693L40.816 99.1495L42.398 98.131L46.4151 98.8062L47.0653 96.2364L50.4943 92.526L53.738 88.4213L51.8433 85.8657L54.1563 84.8103L53.7649 77.3539L56.0924 73.0892L61.5982 71.8965L67.4427 74.9439L70.7506 72.6148L73.7592 67.5755L73.43 63.6633L76.2347 61.4572L77.3933 57.2028L80.0841 56.6362L82.1858 51.8336L77.1179 47.694L78.7941 44.1415L73.7313 40.5592L65.7758 45.6252L59.394 46.1221L54.1811 42.337L55.1554 39.0386L50.1992 34.3559L41.2892 34.8549L42.1599 30.6364L39.0073 27.7448L36.802 24.0478L37.7587 17.9552L32.8812 11.4957L32.8657 11.4998L29.857 9.34902L28.038 2.89364L25.696 1.12405L17.7354 0.835092L15.4421 3.7103L11.8185 3.17337L11.3784 0.400635L9.27879 0.514372L4.99976 6.56808L3.01296 6.25044L4.03172 8.99448L0.315918 12.7827Z" fill="#5C5DF7"/>
</svg>
