<svg width="125" height="63" viewBox="0 0 125 63" fill="none" xmlns="http://www.w3.org/2000/svg">
<path fill-rule="evenodd" clip-rule="evenodd" d="M59.7569 50.9129L64.6136 54.8015L63.4789 59.8244L69.6909 59.5262L72.1539 62.4066L75.6772 58.6204L80.5463 59.6369L85.1267 61.0171L89.1324 59.2865L89.3612 55.2319L90.4503 50.4692L93.4839 51.6691L97.5641 47.7887L100.782 48.8236L109.135 41.1069L114.367 37.0697L111.709 26.0751L121.845 19.4127L116.734 16.8469L114.597 13.773L117.608 12.3784L122.885 12.9348L124.109 12.2319L119.219 8.4447L114.186 8.52155L107.908 7.34729L106.778 2.29775L101.221 0.489217L92.4185 0.19104L92.5169 0.439009L92.4299 5.05409L84.6183 7.80122L80.2068 3.02731L75.3045 2.81008L72.7327 5.56847L72.0194 10.8773L68.3543 8.71829L63.9872 12.9573L61.9725 9.05643L58.4285 8.76542L53.577 9.56466L53.7271 12.987L49.5019 18.4464L45.4279 17.2957L41.2337 19.1309L36.5395 17.4197L28.4784 16.807L24.2191 21.6239L23.4239 27.3959L19.617 25.2543L14.0759 31.056L11.9959 28.9943L8.18592 31.39L5.22383 34.923L2.46674 32.9157L0.377441 35.047L5.51683 38.787L6.76441 41.5854L8.17143 44.4411L13.7943 44.5969L14.6764 45.5857L17.2026 43.3898L23.1133 43.7239L25.5267 45.0252L27.9784 42.1449L30.2302 41.943L31.7811 44.7813L35.5756 43.1521L38.6495 40.1078L43.1367 40.8189L45.5003 46.0396L50.3881 45.057L53.5086 45.8962L53.3264 48.1812L56.7275 45.2137L61.9166 45.6718L61.1556 49.7304L59.7569 50.9129Z" fill="#5C5DF7"/>
</svg>
