<svg width="91" height="75" viewBox="0 0 91 75" fill="none" xmlns="http://www.w3.org/2000/svg">
<path fill-rule="evenodd" clip-rule="evenodd" d="M62.5355 65.7089L64.3773 63.7897L66.9563 65.5367L67.3601 63.7323L71.8876 63.1616L73.2749 61.0661H77.3293L78.8295 63.9577L82.7834 63.2814V60.105L86.7198 59.3928V56.2809L88.6072 55.9828L88.0709 54.1056L83.4347 51.5204L85.6544 47.309L89.7916 46.0241L90.6488 44.9174L90.3414 39.0021L89.1507 38.045L87.5553 35.3051L90.8756 34.9587L90.6675 30.7525L88.31 29.0977L85.7072 26.0237L85.232 23.7622L88.2655 20.9219L88.8701 15.07L87.0231 12.8486L87.4114 8.65052L84.8034 7.80927L80.69 11.7204L78.1017 10.6978L77.2651 14.362L77.0094 18.891L72.1847 20.9762L67.3218 19.5068L62.9941 18.6051L59.1261 22.7653L56.2872 19.4474L49.3329 19.7814L50.6053 14.154L45.3417 9.9334L47.3171 8.25193L47.8389 5.47612L44.0351 5.14003L39.2405 9.32885L39.5418 5.56834L37.3624 4.98223L31.9632 6.06427L29.5105 0.632534L25.9644 0.0689697L23.0976 2.91036L18.3755 4.93612L16.7158 1.89184L15.4341 2.00558L12.7422 5.16769L9.85779 3.61123L4.52066 3.311L2.28124 5.25786L3.1447 6.22412L0.0449219 7.9681L1.59688 11.4642L3.95537 13.2154L3.39525 18.4627L6.85533 21.008L6.06641 27.076L10.2357 28.1427L14.5986 27.2297L15.7726 28.8733L17.365 26.7481L21.4887 32.0057L20.1531 36.5541L19.8436 40.8854L22.2259 44.4174L25.6041 45.0558L27.4615 43.5505L30.6752 45.5999L28.4886 48.0693L32.1102 49.6165L34.6685 52.6731L32.8867 58.2319L27.5609 58.1499L26.0607 59.2494L26.3869 61.1901L31.1618 64.9568V69.3454L29.2537 72.7053H32.3752L34.7679 74.5169L39.841 69.7758L40.5512 66.4395L43.3187 68.123L42.9832 70.9449L42.7306 73.9287L43.9378 73.6521L45.7393 71.3865L51.0878 74.1101L53.8438 71.5126L52.7443 67.3145L55.3792 66.4415L55.9922 68.041L61.6554 67.5307L62.5355 65.7089Z" fill="#5C5DF7"/>
</svg>
