<svg width="101" height="137" viewBox="0 0 101 137" fill="none" xmlns="http://www.w3.org/2000/svg">
<path fill-rule="evenodd" clip-rule="evenodd" d="M97.2518 64.3893L92.5462 60.681L92.071 57.855L94.2649 56.2473L99.222 56.3242L100.652 51.8689L98.5522 49.3595L93.9812 47.4076L96.2962 44.7906L94.5268 43.6634L92.8516 45.018L88.6782 44.228L85.9159 40.1273L86.2514 35.3965L87.4865 31.1953L84.3785 27.235L82.7571 29.4042L81.2021 27.233L77.2129 28.067L72.0642 26.7462L72.8863 20.4169L69.4355 17.8768L69.9987 12.6274L67.8597 11.0423L65.8791 6.586L68.7211 4.9906L67.3742 3.48537L61.5929 3.32347L60.1248 0.343753L56.5508 1.62458L53.4883 0.107056L50.4092 1.07844L49.9174 5.2191L43.7385 5.57056L42.3615 3.56529L39.944 5.73655L35.4083 5.22115L32.4006 2.3193L30.1105 2.57137L29.9552 6.24581L25.7414 8.7214L28.8008 13.0916L32.1594 9.54933L35.5667 13.1818V17.9925L37.1952 21.9057L35.0707 27.0444L32.7464 32.0601L38.4128 35.0778L42.4423 43.063L45.0016 39.2666L48.1356 41.526L47.386 44.2444L46.4987 50.6045L48.5829 53.8158L46.7472 58.0374L51.9032 61.3471L56.3054 61.0366L58.9258 66.5421L57.8615 72.7085L58.8026 75.1985L57.5157 77.463L62.6448 81.9623L60.7284 85.5086L53.9521 83.4972L50.7571 79.7849L47.0495 84.9225L41.9567 81.5616L41.7196 79.1004L34.2984 85.857L32.9887 81.9684L33.263 76.9496L28.8329 78.1095L25.6979 81.2143L24.8334 89.0488L29.247 92.3267L25.7414 96.5904L26.3719 101.441L19.313 103.264L18.5592 109.523L13.5721 111.528L10.3242 115.582L11.9466 119.671L10.9092 124.106L4.09358 123.167L0.974121 124.278L3.25082 127.465L4.4342 132.139L11.313 135.325L18.0664 136.718L19.3171 128.843L22.3196 130.822L23.3994 134.562L34.0582 126.907H41.9019L47.502 130.071L48.5342 136.458L50.4082 132.966L49.8398 127.598L46.1384 124.891L47.8167 122.777L44.953 120.511L45.2708 114.382L46.975 108.484L50.579 110.923L50.4247 116.683L52.1517 118.496L52.6859 116.381L52.1848 112.895L56.1449 112.142L55.854 108.973L59.7852 106.498L61.5815 108.962L63.559 105.343L65.5737 108.253L70.2327 101.411L73.4692 98.487L69.9873 93.3862L63.8913 91.426L62.2348 88.1441L62.3859 86.2167L64.8583 81.9008L69.9853 83.4818L73.5541 90.2354L75.9446 94.4488L79.8147 89.5653L79.501 84.7821L83.9302 82.6672L84.2356 76.1391L89.4909 75.0355L94.3829 71.7054H95.206L97.2518 68.1098V64.3893Z" fill="#5C5DF7"/>
</svg>
