<svg width="80" height="86" viewBox="0 0 80 86" fill="none" xmlns="http://www.w3.org/2000/svg">
<path fill-rule="evenodd" clip-rule="evenodd" d="M18.2343 13.0718L20.337 14.9152L20.4282 18.6439L18.402 19.7598L19.2147 21.3788V26.3607H25.7394L27.8836 31.8232L32.9795 34.7168L31.8945 37.549L28.3785 39.2151L28.9106 41.1537L32.1253 41.2326L33.2818 45.5188L29.8197 46.9072V50.6022L27.5357 52.9466L25.4288 53.8093L25.7342 57.6631L24.3655 60.3682L16.8573 57.4776L11.5191 58.1672L10.0013 59.0157L10.1846 61.3632L8.05283 61.0394V63.6359L3.56259 63.9576L3.12879 66.3328L2.29327 67.5419L3.88458 68.5399L3.78519 71.3864L1.67932 72.3066L0.730957 74.4522L1.2217 75.1141L3.5864 73.8241L4.90749 75.9995L3.86905 77.9678L3.64438 82.0286L5.78027 85.6046L10.0262 85.95L10.374 82.9938L12.3847 80.4608L15.6584 80.9742L20.8526 81.2836L24.9619 77.7639L28.4344 76.6727L34.3451 77.2844L34.0821 81.1945L34.1981 81.4886L36.5359 81.8113L38.9202 78.2701H41.8305L44.3971 76.4759L48.3966 71.8096L53.2088 66.881L56.2444 67.2048L59.3214 65.2507L62.1655 64.8378L63.9307 64.6359L64.6803 61.2187L66.6702 57.9623L64.6047 54.2612L65.5624 51.9711L64.2496 49.9033L64.4236 44.986L69.1902 42.2665L69.7359 38.8103L72.0126 35.1574L71.263 32.0312L73.8068 30.1622L73.7157 24.8401L76.3371 26.8771L78.7608 23.4445L79.4048 19.4842L77.3455 19.7393L74.9104 17.0444L71.3054 20.1871L68.6218 19.808L68.1611 15.241L65.5541 14.3291L65.5521 11.0614L61.5112 10.0286L60.0379 12.2111H56.612L50.869 8.02331L44.8713 8.48236L42.8938 5.76803L37.2865 5.91763L34.1132 1.58126L27.9799 2.02391L26.2871 0.765625L21.9025 3.75149L21.8662 6.6226L18.0324 11.21L18.2343 13.0718Z" fill="#5C5DF7"/>
</svg>
