<svg width="84" height="86" viewBox="0 0 84 86" fill="none" xmlns="http://www.w3.org/2000/svg">
<path fill-rule="evenodd" clip-rule="evenodd" d="M51.0539 78.9951L54.546 78.6129L57.6417 81.5927L61.4569 82.0292L64.3424 79.4347L66.0196 81.8745L70.924 81.5947L71.3919 77.6303L75.3842 76.3689L78.427 77.8783L81.5589 76.7552L80.6022 74.6014L74.8158 70.3911L78.1889 66.9584L80.8921 68.9258L83.0643 66.3344L81.4864 64.986L81.2359 60.5512L81.3063 57.1586L78.0688 56.9249L77.5873 52.7279L74.8292 52.6521L73.7742 48.6313L73.0992 44.6966L71.0668 44.1095L71.5037 40.9443L69.7468 41.5232L69.2364 37.7781L73.5133 34.6652L73.2938 30.4077L66.3292 24.4985L68.7932 21.9747L68.8585 20.2656L67.8128 19.1425L68.8564 16.9979L66.734 14.7252L69.2602 12.6585L68.1058 11.7178L64.8548 11.5672L60.1275 14.2662H53.0883L50.4451 10.2495L51.351 5.93055L50.6232 0.888184L47.6828 1.28268L44.7083 4.15173L40.6674 4.57697L36.495 2.97337L33.6644 5.6959L30.399 4.12099L26.1728 5.28501L21.0406 5.20509L17.9937 6.26049L15.8453 8.32109L16.948 10.0702L16.5049 12.4279L15.5265 15.9015L14.4984 17.6435L17.3062 22.8969L18.2908 29.297L17.9388 33.2019L14.311 34.7656L10.765 32.0359L8.40856 33.8598L6.07078 34.5545L3.43172 38.4339L3.75163 50.4183L0.789551 55.64L3.18841 55.5755L5.70945 58.7601L7.08023 63.0944L10.4564 65.5997L14.6102 65.1417L19.4152 70.803L23.512 71.0438V74.4333L30.3607 75.0881L34.5445 81.1879L37.9662 78.863L45.225 80.2975L46.8836 84.9843L47.0399 85.2087L50.8861 82.9534L51.0539 78.9951Z" fill="#5C5DF7"/>
</svg>
