<svg width="75" height="61" viewBox="0 0 75 61" fill="none" xmlns="http://www.w3.org/2000/svg">
<path fill-rule="evenodd" clip-rule="evenodd" d="M71.0869 48.027L71.2464 42.6947L66.2706 37.6974L63.6667 39.4946L60.9769 37.4976L60.8289 30.787L57.0095 32.3845L52.8578 28.8781L50.8545 24.1196L47.0527 21.2597L43.4819 21.1798L39.8396 17.5699L35.7811 16.7666L32.2496 11.842L27.1164 10.8717L25.2373 5.96252L21.3133 2.21532L17.7259 1.9069L16.8355 0L15.3736 0.103491L14.3487 5.18377L8.14496 9.97305L6.94397 18.1488L5.40236 20.3498L1.79527 20.7976L0 24.0796L0.340624 28.8043L3.90838 29.0267L6.18818 37.808L11.6309 38.2558L13.8496 45.7225L18.8141 43.7152L21.596 50.8284H25.8388L30.1157 45.4213L38.1613 53.6124L41.289 51.4022L49.7053 57.2561L54.0713 54.301L60.8765 60.8107L67.3183 55.9753L73.4527 57.0604L74.2292 53.6637L74.3752 51.1225L71.0869 48.027Z" fill="#5C5DF7"/>
</svg>
