<svg width="31" height="17" viewBox="0 0 31 17" fill="none" xmlns="http://www.w3.org/2000/svg">
<rect y="8" width="30" height="1" rx="0.5" fill="#3C4153"/>
<path d="M21.3536 16.6464C21.1583 16.4511 21.1583 16.1346 21.3536 15.9393L29.1955 8.09737C29.3907 7.9021 29.7073 7.9021 29.9026 8.09737C30.0978 8.29263 30.0978 8.60921 29.9026 8.80447L22.0607 16.6464C21.8654 16.8417 21.5488 16.8417 21.3536 16.6464Z" fill="#3C4153"/>
<path d="M21.0217 0.499736C21.2098 0.297564 21.5262 0.286155 21.7284 0.474253L29.8478 8.02848C30.05 8.21658 30.0614 8.53296 29.8733 8.73513C29.6852 8.9373 29.3688 8.94871 29.1667 8.76061L21.0472 1.20638C20.845 1.01828 20.8336 0.701908 21.0217 0.499736Z" fill="#3C4153"/>
</svg>
