<svg width="12" height="12" viewBox="0 0 12 12" fill="none" xmlns="http://www.w3.org/2000/svg">
<path fill-rule="evenodd" clip-rule="evenodd" d="M7.34502 1.65466L10.345 4.65543L11.6704 3.33011C12.1099 2.89042 12.1099 2.17791 11.6704 1.73845L10.2616 0.329595C9.82219 -0.109865 9.10947 -0.109865 8.67003 0.329595L7.34502 1.65466ZM10.9631 2.62321C11.0124 2.57389 11.0121 2.49437 10.9633 2.44554L9.55451 1.03669C9.50559 0.987771 9.42606 0.987771 9.37715 1.03669L8.75886 1.65501L10.3451 3.24128L10.9631 2.62321ZM9.81469 5.18569L6.81439 2.18527L0.301184 8.69809L0.0035357 11.3752C-0.036307 11.7333 0.266263 12.0361 0.624379 11.9965L3.29947 11.7012L9.81469 5.18569ZM2.84067 10.7458L8.4005 5.18569L6.81427 3.59939L1.2563 9.1572L1.05779 10.9426L2.84067 10.7458Z" fill="#3C4153"/>
</svg>
