<svg width="11" height="14" viewBox="0 0 11 14" fill="none" xmlns="http://www.w3.org/2000/svg">
<path fill-rule="evenodd" clip-rule="evenodd" d="M9.08464 3.75H1.91797V11.75C1.91797 12.3023 2.36568 12.75 2.91797 12.75H8.08464C8.63692 12.75 9.08464 12.3023 9.08464 11.75V3.75ZM0.917969 2.75V11.75C0.917969 12.8546 1.8134 13.75 2.91797 13.75H8.08464C9.18921 13.75 10.0846 12.8546 10.0846 11.75V2.75H0.917969Z" fill="#3C4153"/>
<path d="M0 0.916748H11V1.83341H0V0.916748Z" fill="#3C4153"/>
<path d="M3.20964 0H7.79297L8.70964 0.916667H2.29297L3.20964 0Z" fill="#3C4153"/>
<path fill-rule="evenodd" clip-rule="evenodd" d="M3.5 10V6H4.5V10H3.5ZM6.5 10V6H7.5V10H6.5Z" fill="#3C4153"/>
</svg>
