<svg width="10" height="13" viewBox="0 0 10 13" fill="none" xmlns="http://www.w3.org/2000/svg">
<path d="M5.83333 3.45312V0H0.625C0.278646 0 0 0.27168 0 0.609375V12.3906C0 12.7283 0.278646 13 0.625 13H9.375C9.72135 13 10 12.7283 10 12.3906V4.0625H6.45833C6.11458 4.0625 5.83333 3.78828 5.83333 3.45312ZM7.32031 6.5H7.94271C8.14323 6.5 8.29167 6.68027 8.2474 6.87324L7.25781 11.1389C7.22656 11.2785 7.09896 11.375 6.95312 11.375H5.96354C5.82031 11.375 5.69531 11.2785 5.66146 11.1439C4.98958 8.51602 5.11979 9.08223 4.99479 8.33828H4.98177C4.95312 8.70137 4.91927 8.78008 4.3151 11.1439C4.28125 11.2785 4.15625 11.375 4.01302 11.375H3.04688C2.90104 11.375 2.77344 11.276 2.74219 11.1363L1.75781 6.8707C1.71354 6.68027 1.86198 6.5 2.0625 6.5H2.70052C2.84896 6.5 2.97917 6.60156 3.00781 6.74629C3.41406 8.72676 3.53125 9.52656 3.55469 9.84902C3.59635 9.59004 3.74479 9.01875 4.32031 6.73359C4.35417 6.59648 4.47917 6.50254 4.625 6.50254H5.38281C5.52865 6.50254 5.65365 6.59902 5.6875 6.73613C6.3125 9.28535 6.4375 9.88457 6.45833 10.0217C6.45312 9.7373 6.39062 9.56973 7.02083 6.74121C7.04688 6.59902 7.17448 6.5 7.32031 6.5ZM10 3.09512V3.25H6.66667V0H6.82552C6.99219 0 7.15104 0.0634766 7.26823 0.177734L9.81771 2.66602C9.9349 2.78027 10 2.93516 10 3.09512Z" fill="#3C4153"/>
</svg>
