<svg width="16" height="14" viewBox="0 0 16 14" fill="none" xmlns="http://www.w3.org/2000/svg">
<path fill-rule="evenodd" clip-rule="evenodd" d="M6.04364 9.1L5.35273 12.299L5.33091 12.523C5.33091 12.81 5.45455 13.076 5.65091 13.265L6.42182 14L11.2073 9.387C11.4764 9.135 11.6364 8.785 11.6364 8.4V1.4C11.6364 0.63 10.9818 0 10.1818 0H3.63636C3.03273 0 2.51636 0.349999 2.29818 0.854L0.101817 5.789C0.0363626 5.95 0 6.118 0 6.3V7.7C0 8.47 0.654545 9.1 1.45455 9.1H6.04364ZM1.02378 6.17683C1.0063 6.22289 1 6.26052 1 6.3V7.7C1 7.88204 1.17046 8.1 1.45455 8.1H7.28267L6.34241 12.4535L6.33474 12.5322C6.33698 12.5361 6.34004 12.5402 6.34375 12.5439C6.34396 12.5441 6.34354 12.5437 6.34375 12.5439L6.41801 12.6147L10.5185 8.66203L10.5237 8.65709C10.5973 8.58824 10.6364 8.49985 10.6364 8.4V1.4C10.6364 1.21797 10.4659 1 10.1818 1H3.63636C3.42294 1 3.27232 1.12089 3.21588 1.25127L3.21183 1.26063L1.02378 6.17683ZM13.0909 0H16V8.4H13.0909V0ZM14.0909 7.4H15V1H14.0909V7.4Z" fill="#3C4153"/>
</svg>
