<svg width="7" height="13" viewBox="0 0 7 13" fill="none" xmlns="http://www.w3.org/2000/svg">
<path d="M6.64639 6.28268C6.84166 6.47794 6.84166 6.79452 6.64639 6.98978L0.98954 12.6466C0.794278 12.8419 0.477695 12.8419 0.282433 12.6466C0.0871707 12.4514 0.0871709 12.1348 0.282433 11.9395L5.93929 6.28268C6.13455 6.08742 6.45113 6.08741 6.64639 6.28268Z" fill="#0009F7"/>
<path fill-rule="evenodd" clip-rule="evenodd" d="M0.282433 11.9395L5.93929 6.28268C6.13455 6.08742 6.45113 6.08741 6.64639 6.28268C6.84166 6.47794 6.84166 6.79452 6.64639 6.98978L0.98954 12.6466C0.794278 12.8419 0.477695 12.8419 0.282433 12.6466C0.0871707 12.4514 0.0871709 12.1348 0.282433 11.9395Z" fill="#0009F7"/>
<path d="M6.64639 6.93912C6.45113 7.13438 6.13455 7.13438 5.93929 6.93912L0.282433 1.28226C0.0871709 1.087 0.0871707 0.77042 0.282433 0.575157C0.477695 0.379895 0.794278 0.379896 0.98954 0.575157L6.64639 6.23201C6.84166 6.42727 6.84166 6.74386 6.64639 6.93912Z" fill="#0009F7"/>
<path fill-rule="evenodd" clip-rule="evenodd" d="M0.989643 0.575261L6.64639 6.23201C6.84166 6.42727 6.84166 6.74386 6.64639 6.93912C6.45113 7.13438 6.13455 7.13438 5.93929 6.93912L0.282537 1.28237C0.282502 1.28233 0.282467 1.2823 0.282433 1.28226C0.0871709 1.087 0.0871707 0.77042 0.282433 0.575157C0.477695 0.379895 0.794278 0.379896 0.98954 0.575157C0.989574 0.575192 0.989609 0.575227 0.989643 0.575261Z" fill="#0009F7"/>
</svg>
