<svg width="22" height="20" viewBox="0 0 22 20" fill="none" xmlns="http://www.w3.org/2000/svg">
<path d="M10.5245 0.463656C10.6742 0.00300047 11.3259 0.00299999 11.4756 0.463655L13.5819 6.94643C13.6489 7.15245 13.8409 7.29193 14.0575 7.29193H20.8739C21.3582 7.29193 21.5596 7.91173 21.1678 8.19643L15.6532 12.203C15.4779 12.3303 15.4046 12.556 15.4715 12.762L17.5779 19.2448C17.7276 19.7055 17.2004 20.0885 16.8085 19.8038L11.2939 15.7972C11.1187 15.6699 10.8814 15.6699 10.7061 15.7972L5.19157 19.8038C4.79971 20.0885 4.27247 19.7055 4.42214 19.2448L6.52853 12.762C6.59546 12.556 6.52213 12.3303 6.34689 12.203L0.83231 8.19643C0.440453 7.91173 0.641841 7.29193 1.1262 7.29193H7.9426C8.15921 7.29193 8.35119 7.15244 8.41813 6.94643L10.5245 0.463656Z" fill="#0009F7"/>
</svg>
