<svg width="13" height="10" viewBox="0 0 13 10" fill="none" xmlns="http://www.w3.org/2000/svg">
<path fill-rule="evenodd" clip-rule="evenodd" d="M12 2L1 2L1 9H12V2ZM1 1C0.447715 1 0 1.44772 0 2V9C0 9.55229 0.447715 10 1 10H12C12.5523 10 13 9.55229 13 9V2C13 1.44772 12.5523 1 12 1H1Z" fill="#3C4153"/>
<path d="M4 1C4 0.447715 4.44772 0 5 0H8C8.55228 0 9 0.447715 9 1H4Z" fill="#3C4153"/>
<path fill-rule="evenodd" clip-rule="evenodd" d="M6.5 7C7.32843 7 8 6.32843 8 5.5C8 4.67157 7.32843 4 6.5 4C5.67157 4 5 4.67157 5 5.5C5 6.32843 5.67157 7 6.5 7ZM6.5 8C7.88071 8 9 6.88071 9 5.5C9 4.11929 7.88071 3 6.5 3C5.11929 3 4 4.11929 4 5.5C4 6.88071 5.11929 8 6.5 8Z" fill="#3C4153"/>
</svg>
