<svg width="9" height="12" viewBox="0 0 9 12" fill="none" xmlns="http://www.w3.org/2000/svg">
<path d="M4.53302 9.85355C4.53311 9.85345 4.53292 9.85364 4.53302 9.85355C4.52099 9.86508 4.50803 9.87628 4.49487 9.88666C4.48885 9.89142 4.48248 9.89555 4.47628 9.90002C4.46888 9.90534 4.46164 9.91085 4.45395 9.9158C4.44653 9.92056 4.43884 9.92468 4.43123 9.92904C4.42425 9.93305 4.41744 9.93724 4.41027 9.94092C4.40251 9.94491 4.39453 9.94828 4.3866 9.95187C4.37913 9.95527 4.37176 9.95885 4.3641 9.9619C4.35641 9.96494 4.34855 9.96743 4.34074 9.9701C4.33252 9.97294 4.32441 9.97596 4.31602 9.9784C4.30821 9.98067 4.30028 9.98234 4.29237 9.98423C4.28381 9.98632 4.27534 9.98862 4.2666 9.99028C4.25745 9.99202 4.24823 9.99305 4.23903 9.99431C4.23144 9.99534 4.22395 9.99675 4.21626 9.99748C4.18209 10.0007 4.14766 10.0007 4.1135 9.99748C4.10581 9.99675 4.09832 9.99537 4.09073 9.99431C4.08153 9.99305 4.0723 9.99202 4.06315 9.99028C4.05441 9.98862 4.04595 9.98632 4.03738 9.98423C4.0295 9.98234 4.02154 9.98067 4.01373 9.9784C4.00534 9.97596 3.99721 9.97294 3.98901 9.9701C3.9812 9.96741 3.97335 9.96494 3.96566 9.9619C3.958 9.95885 3.95063 9.95527 3.94316 9.95187C3.93523 9.94828 3.92725 9.94491 3.91949 9.94092C3.91231 9.93724 3.9055 9.93302 3.89852 9.92904C3.89091 9.92468 3.88322 9.92056 3.8758 9.9158C3.86812 9.91085 3.86087 9.90534 3.85348 9.90002C3.84728 9.89557 3.84091 9.89142 3.83488 9.88666C3.82173 9.87628 3.80906 9.86536 3.79703 9.8538C3.79713 9.8539 3.79693 9.85371 3.79703 9.8538L0.15248 6.35355C-0.0508265 6.1583 -0.0508265 5.8417 0.15248 5.64645C0.355786 5.45119 0.685429 5.45119 0.888735 5.64645L3.64429 8.29289V0.499992C3.64429 0.223852 3.87737 0 4.16489 0C4.45241 0 4.68549 0.223852 4.68549 0.499992V8.29289L7.44102 5.64645C7.64432 5.45119 7.97397 5.45119 8.17727 5.64645C8.38058 5.8417 8.38058 6.1583 8.17727 6.35355L4.53302 9.85355Z" fill="#3C4153"/>
<path d="M0.520963 11H7.80948C8.097 11 8.33008 11.2239 8.33008 11.5C8.33008 11.7761 8.097 12 7.80948 12H0.520939C0.233417 12 0.000337915 11.7762 0.000337915 11.5C0.000337915 11.2239 0.23344 11 0.520963 11Z" fill="#3C4153"/>
</svg>
