<svg width="9" height="7" viewBox="0 0 9 7" fill="none" xmlns="http://www.w3.org/2000/svg">
<path d="M4.37518 5.43428C4.04945 5.10854 4.04945 4.58042 4.37518 4.25469L7.23052 1.39935C7.55625 1.07362 8.08437 1.07362 8.4101 1.39935C8.73584 1.72509 8.73584 2.25321 8.4101 2.57894L5.55477 5.43428C5.22903 5.76001 4.70091 5.76001 4.37518 5.43428Z" fill="#3C4153"/>
<path d="M1.49727 1.41792C1.82301 1.09219 2.35113 1.09218 2.67686 1.41792L5.53107 4.27212C5.8568 4.59786 5.8568 5.12598 5.53106 5.45171C5.20533 5.77745 4.67721 5.77745 4.35148 5.45171L1.49727 2.59751C1.17154 2.27177 1.17154 1.74365 1.49727 1.41792Z" fill="#3C4153"/>
</svg>
