<svg width="8" height="13" viewBox="0 0 8 13" fill="none" xmlns="http://www.w3.org/2000/svg">
<path d="M2.6843 13H4.94147C5.31849 13 5.62529 12.7171 5.62529 12.3694V7.67362H7.23488C7.6119 7.67362 7.9186 7.39075 7.9186 7.04322L7.91946 5.03111C7.91946 4.8027 7.78461 4.59134 7.56771 4.47956C7.46716 4.42779 7.35016 4.40031 7.2294 4.40031H5.62529V3.60428C5.62529 3.34492 5.66304 3.25099 5.69476 3.21777C5.71401 3.19773 5.80402 3.13237 6.15749 3.13237L7.3165 3.13197C7.69342 3.13197 8 2.84911 8 2.50137V0.633179C8 0.286041 7.69385 0.00317383 7.31747 0.00257872L5.59604 0C4.53359 0 3.6304 0.323235 2.98411 0.934891C2.34073 1.54377 2.00059 2.39376 2.00059 3.39282V4.40041H0.683711C0.306691 4.40041 0 4.68328 0 5.03101V7.04312C0 7.39075 0.306691 7.67372 0.683711 7.67372H2.00059V12.3694C2.00059 12.7171 2.30728 13 2.6843 13Z" fill="#F0F0FA"/>
</svg>
