<svg width="16" height="14" viewBox="0 0 16 14" fill="none" xmlns="http://www.w3.org/2000/svg">
<path fill-rule="evenodd" clip-rule="evenodd" d="M4.79273 4.613C4.52364 4.865 4.36364 5.215 4.36364 5.6V12.6C4.36364 13.37 5.01818 14 5.81818 14H12.3636C12.9673 14 13.4836 13.65 13.7018 13.146L15.8982 8.211C15.9636 8.05 16 7.882 16 7.7V6.3C16 5.53 15.3455 4.9 14.5455 4.9H9.95636L10.6473 1.701L10.6691 1.477C10.6691 1.19 10.5455 0.924 10.3491 0.735L9.57818 0L4.79273 4.613ZM9.58199 1.3853L5.48154 5.33797L5.47627 5.34291C5.40275 5.41176 5.36364 5.50014 5.36364 5.6V12.6C5.36364 12.782 5.5341 13 5.81818 13H12.3636C12.5771 13 12.7277 12.8791 12.7841 12.7487L12.7882 12.7394L14.9762 7.82317C14.9937 7.77711 15 7.73948 15 7.7V6.3C15 6.11796 14.8295 5.9 14.5455 5.9H8.71733L9.65759 1.54646L9.66526 1.46778C9.66302 1.46391 9.65997 1.4598 9.65625 1.4561C9.65604 1.4559 9.65647 1.45631 9.65625 1.4561L9.58199 1.3853ZM2.90909 14H0V5.6H2.90909V14ZM1.90909 6.6H1V13H1.90909V6.6Z" fill="#3C4153"/>
</svg>
