<svg width="13" height="13" viewBox="0 0 13 13" fill="none" xmlns="http://www.w3.org/2000/svg">
<path d="M6.51441 0C2.84427 0 0 2.68244 0 6.30558C0 8.20064 0.778689 9.83831 2.04619 10.9696C2.26504 11.1664 2.21996 11.2804 2.25718 12.4958C2.26011 12.581 2.28382 12.6641 2.32625 12.738C2.36868 12.8118 2.42854 12.8742 2.5006 12.9196C2.57267 12.965 2.65475 12.9921 2.73969 12.9985C2.82463 13.0049 2.90984 12.9905 2.9879 12.9564C4.37466 12.3457 4.39248 12.2974 4.62758 12.3614C8.64526 13.4672 13 10.8959 13 6.30558C13 2.68244 10.1848 0 6.51441 0ZM10.4259 4.85245L8.51264 7.88165C8.44039 7.99556 8.34539 8.09332 8.2336 8.16879C8.12181 8.24427 7.99563 8.29584 7.86298 8.32028C7.73033 8.34471 7.59406 8.34148 7.46271 8.31079C7.33136 8.2801 7.20777 8.22262 7.09968 8.14193L5.57742 7.00253C5.50937 6.95149 5.4266 6.9239 5.34153 6.9239C5.25647 6.9239 5.1737 6.95149 5.10565 7.00253L3.05159 8.56052C2.77744 8.76837 2.41837 8.43995 2.60315 8.14979L4.51645 5.12058C4.58868 5.00665 4.68366 4.90886 4.79545 4.83336C4.90724 4.75786 5.03343 4.70627 5.16609 4.68184C5.29876 4.6574 5.43504 4.66064 5.56639 4.69135C5.69774 4.72206 5.82134 4.77958 5.92942 4.86031L7.45115 5.99944C7.5192 6.05048 7.60197 6.07807 7.68704 6.07807C7.7721 6.07807 7.85487 6.05048 7.92292 5.99944L9.97802 4.44303C10.2517 4.23387 10.6107 4.56203 10.4259 4.85245Z" fill="#3C4153"/>
</svg>
