<svg width="40" height="40" viewBox="0 0 40 40" fill="none" xmlns="http://www.w3.org/2000/svg">
<circle cx="20" cy="20" r="20" fill="#7C5299"/>
<path d="M25.4212 14.3633C25.055 14.0434 23.5731 13.0236 20.2689 13.0099C20.2689 13.0099 16.3737 12.7884 14.4765 14.4398C13.4212 15.4405 13.0493 16.9086 13.0089 18.7268C12.9686 20.5449 12.9196 23.9515 16.3823 24.8756H16.3852L16.3823 26.2864C16.3823 26.2864 16.3592 26.8578 16.7571 26.9726C17.2357 27.1148 17.5183 26.6801 17.9767 26.2125C18.2276 25.9555 18.5736 25.5782 18.8359 25.2912C21.2059 25.4798 23.0253 25.0478 23.2328 24.985C23.7115 24.8373 26.4188 24.5092 26.8571 21.1026C27.3126 17.5867 26.6379 15.3666 25.4212 14.3633ZM21.8143 18.6365C21.8258 18.8717 21.4539 18.8881 21.4424 18.6529C21.4107 18.0515 21.1137 17.7589 20.5024 17.7261C20.2545 17.7124 20.2775 17.3597 20.5226 17.3734C21.327 17.4144 21.7739 17.8519 21.8143 18.6365ZM22.3996 18.9455C22.4284 17.7863 21.6644 16.8786 20.2141 16.7774C19.969 16.761 19.995 16.4083 20.2401 16.4247C21.9123 16.5395 22.8032 17.6304 22.7715 18.9537C22.7686 19.1888 22.3938 19.1779 22.3996 18.9455ZM23.7547 19.3118C23.7576 19.547 23.3828 19.5497 23.3828 19.3146C23.3655 17.0863 21.7999 15.8724 19.8998 15.8588C19.6548 15.856 19.6548 15.5061 19.8998 15.5061C22.0248 15.5197 23.7345 16.9114 23.7547 19.3118ZM23.4289 21.9939V21.9994C23.1175 22.5189 22.5351 23.093 21.9354 22.9098L21.9296 22.9016C21.3213 22.7403 19.8883 22.0404 18.983 21.3569C18.5159 21.0069 18.0892 20.5941 17.7605 20.1977C17.4635 19.845 17.1637 19.4267 16.8725 18.9236C16.2583 17.871 16.1228 17.4008 16.1228 17.4008C15.9297 16.8321 16.5322 16.2798 17.0829 15.9845H17.0887C17.354 15.8533 17.6077 15.897 17.7778 16.0912C17.7778 16.0912 18.1353 16.4958 18.2881 16.6954C18.4323 16.8813 18.6255 17.1793 18.7264 17.3461C18.9022 17.6441 18.7927 17.9476 18.6197 18.0733L18.2737 18.3358C18.0978 18.4698 18.1209 18.7186 18.1209 18.7186C18.1209 18.7186 18.6341 20.5586 20.5515 21.0234C20.5515 21.0234 20.8138 21.0452 20.9551 20.8784L21.2319 20.5504C21.3645 20.3863 21.6846 20.2824 21.9988 20.4492C22.4227 20.6761 22.9618 21.0288 23.3193 21.3487C23.5212 21.5045 23.5673 21.7424 23.4289 21.9939Z" fill="white"/>
</svg>
