<svg width="14" height="14" viewBox="0 0 14 14" fill="none" xmlns="http://www.w3.org/2000/svg">
<path d="M13.2632 11.6667V12.4444C13.2632 13.3 12.6 14 11.7895 14H1.47368C0.655789 14 0 13.3 0 12.4444V1.55556C0 0.7 0.655789 0 1.47368 0H11.7895C12.6 0 13.2632 0.7 13.2632 1.55556V2.33333H6.63158C5.81368 2.33333 5.15789 3.03333 5.15789 3.88889V10.1111C5.15789 10.9667 5.81368 11.6667 6.63158 11.6667H13.2632ZM6.63158 10.1111H14V3.88889H6.63158V10.1111ZM9.57895 8.16667C8.96737 8.16667 8.47368 7.64556 8.47368 7C8.47368 6.35444 8.96737 5.83333 9.57895 5.83333C10.1905 5.83333 10.6842 6.35444 10.6842 7C10.6842 7.64556 10.1905 8.16667 9.57895 8.16667Z" fill="#5C5DF7"/>
</svg>
