<svg width="15" height="14" viewBox="0 0 15 14" fill="none" xmlns="http://www.w3.org/2000/svg">
<path d="M13.8527 7.59132C14.0572 7.88066 14.213 8.19466 14.3218 8.53873C14.4301 8.8816 14.4849 9.23651 14.4849 9.60404C14.4849 10.1304 14.3784 10.6248 14.1679 11.088C13.9567 11.55 13.6662 11.9572 13.2956 12.3109C12.9251 12.661 12.4938 12.9359 11.9981 13.1356C11.5025 13.3353 10.9809 13.4334 10.4263 13.4334C9.63652 13.4334 8.92792 13.2469 8.29932 12.8746C8.12488 12.8986 7.94923 12.9161 7.77178 12.9293C7.59373 12.9413 7.41748 12.9461 7.24123 12.9461C6.31848 12.9461 5.45228 12.7807 4.64201 12.4511C3.83356 12.1196 3.12555 11.6697 2.5156 11.0964C1.90745 10.5256 1.42803 9.85247 1.08276 9.08191C0.734469 8.31135 0.560627 7.48786 0.560627 6.61263C0.560627 6.443 0.569048 6.28179 0.587094 6.13261C0.603335 5.98343 0.625592 5.83124 0.64845 5.67905C0.215348 5.07812 0 4.43268 0 3.74032C0 3.22541 0.106471 2.73877 0.317608 2.281C0.528144 1.82384 0.816879 1.42623 1.18742 1.08877C1.55796 0.75071 1.99167 0.484834 2.48432 0.289938C2.97818 0.0950418 3.50211 0 4.05672 0C4.45614 0 4.83089 0.0469194 5.187 0.142563C5.54311 0.239409 5.87635 0.374152 6.18374 0.550401C6.35758 0.525738 6.53563 0.508294 6.71128 0.494458C6.88933 0.483631 7.06739 0.477014 7.24123 0.477014C8.16698 0.477014 9.0362 0.638224 9.84886 0.95884C10.6597 1.27705 11.3695 1.71797 11.9795 2.2774C12.5894 2.83923 13.0701 3.48948 13.419 4.22936C13.7666 4.97045 13.9405 5.76567 13.9405 6.61263C13.9411 6.92482 13.9122 7.25145 13.8527 7.59132ZM10.4263 9.51742C10.7115 9.14207 10.8522 8.70114 10.8522 8.19465C10.8522 7.79584 10.7728 7.46079 10.6164 7.1889C10.4534 6.91821 10.2236 6.69143 9.92706 6.51037C9.65457 6.33472 9.30027 6.17893 8.86656 6.03937C8.43045 5.92989 7.96788 5.82282 7.47883 5.71334L6.94287 5.59123C6.7991 5.56055 6.68481 5.53469 6.59879 5.51123C6.50315 5.48777 6.41473 5.4619 6.33051 5.43122C6.25111 5.40295 6.16689 5.36987 6.08268 5.33377C5.91906 5.2652 5.78191 5.17196 5.67304 5.06248C5.58882 4.96804 5.54672 4.84112 5.54672 4.68352C5.54672 4.45313 5.68387 4.24741 5.95636 4.06515C6.26494 3.89491 6.6421 3.8131 7.09024 3.81852C7.60816 3.81852 7.97209 3.89491 8.17721 4.0483C8.42504 4.22996 8.61934 4.45373 8.75829 4.71781C8.8792 4.9115 9.00191 5.05587 9.12883 5.15091C9.24974 5.24355 9.41757 5.29347 9.6287 5.30009C9.86631 5.30009 10.063 5.22129 10.2284 5.06248C10.3902 4.91451 10.4678 4.74788 10.4636 4.56021C10.4636 4.34305 10.4023 4.12951 10.282 3.92379C10.1629 3.73069 9.96255 3.52497 9.68645 3.30661C9.5469 3.21278 9.39351 3.12676 9.22808 3.04796C9.06206 2.96855 8.87559 2.89878 8.67287 2.83983C8.46053 2.78208 8.23736 2.73757 8.00216 2.70749C7.76637 2.67802 7.50891 2.66418 7.22378 2.66418C6.50556 2.66418 5.89981 2.752 5.40656 2.92765C4.87661 3.11052 4.47539 3.36196 4.2035 3.68799C3.93161 3.99838 3.79566 4.37132 3.79566 4.80683C3.79566 5.2652 3.92739 5.63815 4.18726 5.92568C4.44892 6.23667 4.80322 6.47187 5.25136 6.63128C5.67725 6.80151 6.22163 6.95069 6.88933 7.07942C7.13897 7.13837 7.35732 7.18829 7.55042 7.22619C7.7405 7.26349 7.91314 7.30619 8.06412 7.35251C8.34865 7.43011 8.57963 7.56004 8.75588 7.74471C8.94416 7.90472 9.0386 8.11044 9.0386 8.36429C9.0386 8.71498 8.86656 8.9989 8.5267 9.21545C8.20548 9.43742 7.77118 9.5469 7.22439 9.53908C6.78647 9.53908 6.46946 9.48855 6.26855 9.38629C6.01892 9.2726 5.83485 9.12823 5.71394 8.95619C5.56055 8.76009 5.43784 8.54234 5.33919 8.30714C5.25317 8.08397 5.13707 7.91554 4.98549 7.80186C4.84413 7.68696 4.67871 7.62982 4.48441 7.62982C4.23658 7.62982 4.03206 7.69899 3.87025 7.83494C3.70844 7.98953 3.63084 8.17059 3.63445 8.37391C3.63445 8.72821 3.76558 9.08251 4.02544 9.43742C4.2835 9.80255 4.61494 10.0877 5.01857 10.2928C5.60988 10.5984 6.35277 10.753 7.24544 10.759C7.97389 10.759 8.62294 10.6507 9.18778 10.4348C9.74239 10.1887 10.1562 9.88375 10.4263 9.51742Z" fill="#3C4153"/>
</svg>
