<svg width="8" height="13" viewBox="0 0 8 13" fill="none" xmlns="http://www.w3.org/2000/svg">
<path d="M0.353577 6.71729C0.158315 6.52202 0.158315 6.20544 0.353577 6.01018L6.01043 0.353324C6.20569 0.158062 6.52228 0.158062 6.71754 0.353324C6.9128 0.548587 6.9128 0.865169 6.71754 1.06043L1.06068 6.71728C0.865421 6.91255 0.548839 6.91255 0.353577 6.71729Z" fill="#7C85F4"/>
<path d="M0.3536 6.06065C0.548862 5.86538 0.865445 5.86538 1.06071 6.06065L6.71756 11.7175C6.91282 11.9128 6.91282 12.2293 6.71756 12.4246C6.5223 12.6199 6.20572 12.6199 6.01045 12.4246L0.3536 6.76775C0.158338 6.57249 0.158338 6.25591 0.3536 6.06065Z" fill="#7C85F4"/>
</svg>
