<svg width="14" height="14" viewBox="0 0 14 14" fill="none" xmlns="http://www.w3.org/2000/svg">
<path d="M12.4212 1.36325C12.055 1.04337 10.5731 0.0235753 7.26889 0.00990514C7.26889 0.00990514 3.37367 -0.211551 1.47651 1.4398C0.421249 2.44046 0.0493141 3.90863 0.008949 5.72677C-0.0314161 7.5449 -0.0804307 10.9515 3.38232 11.8756H3.3852L3.38232 13.2864C3.38232 13.2864 3.35925 13.8578 3.75713 13.9726C4.23575 14.1148 4.5183 13.6801 4.97674 13.2125C5.22758 12.9555 5.57356 12.5782 5.83594 12.2912C8.20594 12.4798 10.0253 12.0478 10.2328 11.985C10.7115 11.8373 13.4188 11.5092 13.8571 8.10264C14.3126 4.58667 13.6379 2.36664 12.4212 1.36325ZM8.8143 5.63654C8.82583 5.87167 8.4539 5.88807 8.44237 5.65295C8.41065 5.05146 8.11368 4.75892 7.50244 4.72611C7.25448 4.71244 7.27755 4.35975 7.52262 4.37342C8.32704 4.41443 8.77394 4.85187 8.8143 5.63654ZM9.3996 5.94549C9.42843 4.78626 8.66437 3.87856 7.21411 3.7774C6.96904 3.761 6.99499 3.40831 7.24006 3.42471C8.91233 3.53954 9.80325 4.63042 9.77153 5.95369C9.76865 6.18882 9.39383 6.17788 9.3996 5.94549ZM10.7547 6.31185C10.7576 6.54697 10.3828 6.54971 10.3828 6.31458C10.3655 4.08635 8.79988 2.87244 6.89984 2.85877C6.65477 2.85603 6.65477 2.50608 6.89984 2.50608C9.02478 2.51975 10.7345 3.91137 10.7547 6.31185ZM10.4289 8.99393V8.9994C10.1175 9.51887 9.53511 10.093 8.9354 9.90983L8.92963 9.90163C8.32127 9.74032 6.88831 9.04041 5.98298 8.3569C5.5159 8.00695 5.08918 7.59411 4.76049 7.19767C4.46352 6.84498 4.16367 6.42668 3.87246 5.92362C3.25834 4.87101 3.12283 4.40076 3.12283 4.40076C2.92965 3.83208 3.53224 3.27981 4.08294 2.98453H4.0887C4.35396 2.8533 4.60768 2.89704 4.77779 3.09116C4.77779 3.09116 5.13531 3.4958 5.28812 3.69538C5.43228 3.88129 5.62546 4.1793 5.72637 4.34608C5.90225 4.64409 5.79269 4.94757 5.61969 5.07333L5.27371 5.3358C5.09783 5.46977 5.1209 5.71856 5.1209 5.71856C5.1209 5.71856 5.63411 7.55857 7.55145 8.02335C7.55145 8.02335 7.81382 8.04522 7.9551 7.87845L8.23189 7.55036C8.36452 7.38632 8.68456 7.28243 8.99883 7.4492C9.42266 7.67613 9.96182 8.02882 10.3193 8.3487C10.5212 8.50454 10.5673 8.7424 10.4289 8.99393Z" fill="#3C4153"/>
</svg>
