<svg width="19" height="11" viewBox="0 0 19 11" fill="none" xmlns="http://www.w3.org/2000/svg">
<path fill-rule="evenodd" clip-rule="evenodd" d="M17.9789 7.80274C18.3447 8.2204 18.5261 8.69006 18.497 9.1556C18.4636 9.68976 18.1564 10.1339 17.7111 10.3887C17.3014 10.623 16.8839 10.4366 16.6463 10.3068C16.4638 10.2072 16.25 10.0601 16.0393 9.91509C15.9545 9.85669 15.8701 9.79864 15.7885 9.74416C15.173 9.33341 14.4495 8.93339 13.5295 8.93338C12.4745 8.93338 11.3039 8.99952 10.3925 9.06627C9.93783 9.09958 9.54972 9.13288 9.27551 9.15784C9.13843 9.17031 9.02991 9.18069 8.95585 9.18794L8.9261 9.19089L6.22818 10.4512L6.1253 10.4544L6.10981 9.95467C6.1253 10.4544 6.12539 10.4544 6.1253 10.4544L6.1206 10.4546L6.10819 10.4549L6.06123 10.4561C6.02043 10.4571 5.96108 10.4585 5.88591 10.4597C5.73562 10.4623 5.52185 10.4648 5.26655 10.4643C4.75711 10.4635 4.07714 10.4512 3.40427 10.4047C2.74027 10.3588 2.04878 10.2777 1.53281 10.1284C1.28213 10.0559 1.01672 9.95215 0.81922 9.78794C0.715679 9.70186 0.610559 9.58248 0.549827 9.42218C0.485976 9.25365 0.485587 9.07725 0.536733 8.91198C0.660386 8.51241 0.94221 8.20186 1.23118 7.96978C1.5247 7.73406 1.86704 7.54608 2.17975 7.40177C2.49501 7.25627 2.79651 7.14774 3.01793 7.07572C3.04367 7.06735 3.06839 7.05945 3.09201 7.05203C3.71336 4.32527 4.94029 2.5314 6.48977 1.5168C8.09211 0.467582 9.96882 0.298203 11.712 0.700943C13.4513 1.10278 15.0875 2.0791 16.252 3.37106C17.3633 4.60414 18.0726 6.15911 17.9789 7.80274ZM3.63955 7.93387L3.6366 7.93463L3.62183 7.93852C3.60821 7.94216 3.58722 7.94787 3.55984 7.95564C3.50503 7.97119 3.42493 7.99492 3.32721 8.0267C3.13071 8.0906 2.86814 8.18543 2.59878 8.30974C2.32685 8.43524 2.064 8.58351 1.85736 8.74947C1.71327 8.86519 1.61475 8.97483 1.55372 9.07474C1.61168 9.10209 1.69523 9.13439 1.8107 9.1678C2.21928 9.28599 2.82221 9.36211 3.47318 9.40707C4.1153 9.45143 4.77086 9.46351 5.26822 9.46434C5.51631 9.46475 5.72375 9.46237 5.86883 9.45989C5.91745 9.45906 5.95904 9.45822 5.99277 9.45747L8.65631 8.21318L8.7401 8.2045L8.74828 8.20367L8.77111 8.20135L8.85853 8.19268C8.93463 8.18524 9.04539 8.17465 9.18488 8.16195C9.46378 8.13657 9.85786 8.10276 10.3195 8.06894C11.2407 8.00147 12.439 7.93338 13.5295 7.93338C14.7549 7.93339 15.6852 8.47299 16.3436 8.91238C16.4626 8.99183 16.5671 9.06378 16.6611 9.12855C16.8455 9.25561 16.9898 9.35502 17.1255 9.42914C17.1917 9.46527 17.235 9.48316 17.2606 9.4919C17.4108 9.38966 17.4894 9.24667 17.499 9.09318C17.5096 8.92333 17.4392 8.65616 17.1166 8.34678L16.9403 8.1776L16.9654 7.93452C17.1078 6.55736 16.5377 5.18181 15.5091 4.04055C14.4809 2.89966 13.0248 2.0306 11.4869 1.67528C9.95289 1.32086 8.3675 1.48256 7.03758 2.3534C5.71014 3.22261 4.56653 4.84488 4.00704 7.55028L3.94355 7.85729L3.63955 7.93387ZM17.2908 9.4999C17.2909 9.49996 17.2899 9.4999 17.2878 9.49953ZM10.478 3.52611C8.94836 3.64207 7.31771 4.84844 5.93316 7.24975C5.79523 7.48898 5.48948 7.57109 5.25025 7.43316C5.01103 7.29523 4.92891 6.98948 5.06685 6.75025C6.52286 4.225 8.39222 2.68136 10.4024 2.52897C12.4403 2.37448 14.3805 3.66238 15.9287 6.24276C16.0708 6.47955 15.994 6.78668 15.7573 6.92875C15.5205 7.07083 15.2133 6.99404 15.0713 6.75725C13.6195 4.33763 11.98 3.41225 10.478 3.52611Z" fill="#5C5DF7"/>
</svg>
