<svg width="18" height="14" viewBox="0 0 18 14" fill="none" xmlns="http://www.w3.org/2000/svg">
<path d="M0.245363 7.98569C1.31018 8.92039 2.51702 9.97986 4.85143 9.97986C7.18591 9.97982 8.39283 8.92039 9.45767 7.98569C10.4647 7.10176 11.3344 6.33833 13.1484 6.33833C14.9624 6.33833 15.8321 7.10176 16.8391 7.98569C17.1339 8.24442 17.5777 8.20966 17.8306 7.90801C18.0834 7.60633 18.0494 7.15206 17.7546 6.89334C16.6898 5.95864 15.4829 4.89917 13.1484 4.89917C10.8139 4.89917 9.60698 5.95861 8.54213 6.89334C7.53512 7.77727 6.66542 8.5407 4.85143 8.5407C3.03747 8.5407 2.16788 7.7773 1.16094 6.89334C0.866188 6.63461 0.422305 6.66933 0.169461 6.97102C-0.0833828 7.27266 -0.0493867 7.72697 0.245363 7.98569Z" fill="#0009F7"/>
<path d="M0.245364 4.04995C1.31014 4.98466 2.51699 6.04407 4.85144 6.04407C7.18593 6.04407 8.39285 4.98466 9.4577 4.04995C10.4647 3.16604 11.3344 2.40262 13.1484 2.40262C14.9624 2.40262 15.8321 3.166 16.8391 4.04995C17.1339 4.30874 17.5778 4.27388 17.8306 3.9722C18.0834 3.67056 18.0493 3.21623 17.7546 2.95755C16.6897 2.02284 15.4828 0.963501 13.1484 0.963501C10.8139 0.963501 9.60701 2.02291 8.54216 2.95762C7.53514 3.84153 6.66544 4.60495 4.85144 4.60495C3.03752 4.60495 2.16789 3.84156 1.16094 2.95762C0.86619 2.69887 0.422271 2.73362 0.169461 3.0353C-0.083383 3.33694 -0.0493868 3.79123 0.245364 4.04995Z" fill="#0009F7"/>
<path d="M17.7546 10.8292C16.6898 9.8945 15.4829 8.83508 13.1484 8.83508C10.8139 8.83508 9.60697 9.89447 8.54212 10.8292C7.5351 11.713 6.6654 12.4764 4.85141 12.4764C3.03755 12.4764 2.16789 11.7131 1.16095 10.8292L1.16088 10.8292C0.866125 10.5705 0.422276 10.6053 0.169432 10.9069C-0.0833771 11.2085 -0.0493809 11.6628 0.24537 11.9215C1.31018 12.8562 2.51706 13.9155 4.85141 13.9155C7.18589 13.9155 8.39281 12.8561 9.45766 11.9215C10.4647 11.0376 11.3344 10.2742 13.1484 10.2742C14.9624 10.2742 15.8321 11.0376 16.8391 11.9215C17.1339 12.1802 17.5777 12.1454 17.8306 11.8438C18.0834 11.5421 18.0494 11.0879 17.7546 10.8292Z" fill="#0009F7"/>
</svg>
