<svg width="65" height="65" viewBox="0 0 65 65" fill="none" xmlns="http://www.w3.org/2000/svg">
<path d="M32.5 65C50.4493 65 65 50.4493 65 32.5C65 14.5507 50.4493 0 32.5 0C14.5507 0 0 14.5507 0 32.5C0 50.4493 14.5507 65 32.5 65Z" fill="#ECF3FF"/>
<path d="M37.7204 23.748L37.1062 24.874L37.0551 25.0275C36.7992 25.1299 36.5944 25.2322 36.3385 25.2834C36.1338 25.3858 35.8779 25.4369 35.622 25.4881C35.5708 25.4881 35.4684 25.5393 35.4173 25.5393C35.1614 25.5905 34.8543 25.6417 34.5984 25.6929C34.2913 25.744 34.0354 25.7952 33.7283 25.7952C33.6771 25.7952 33.6771 25.7952 33.6259 25.7952C33.5747 25.7952 33.4724 25.7952 33.4212 25.7952C33.1141 25.8464 32.807 25.8464 32.4999 25.8464C32.1929 25.8464 31.8858 25.8464 31.6299 25.7952C31.5787 25.7952 31.4763 25.7952 31.4251 25.7952C31.374 25.7952 31.374 25.7952 31.3228 25.7952C31.0157 25.744 30.7086 25.744 30.4527 25.6929C29.1732 25.4881 27.996 25.0787 26.87 24.4645C26.4606 22.7755 25.9999 20.9842 26.2559 20.7283C26.6653 20.2677 28.1496 18.2204 28.1496 18.2204L28.7125 18.0669L29.8897 17.7086L30.0944 17.6574H30.1456L30.2992 17.6062L31.1181 17.3503L32.4999 16.9409L33.933 17.2992L34.7519 17.5039L34.9055 17.5551H34.9566L35.1614 17.6062L36.4409 17.9133L37.4133 18.1692L37.7204 23.748Z" fill="#E6E9EE"/>
<path d="M33.5236 25.2835L33.626 25.7953C33.5748 25.7953 33.4725 25.7953 33.4213 25.7953C33.1142 25.8465 32.8071 25.8465 32.5 25.8465C32.1929 25.8465 31.8858 25.8465 31.6299 25.7953C31.5788 25.7953 31.4764 25.7953 31.4252 25.7953L31.5276 25.2835L32.3465 20.6772L31.4252 19.5512L30.6063 18.4764H34.4449L33.626 19.5512L32.7047 20.6772L33.5236 25.2835Z" fill="#0009F7"/>
<path d="M34.9567 16.4291C34.9567 18.2205 33.8819 18.4764 32.5 18.4764C31.1181 18.4764 30.0433 18.2205 30.0433 16.4291C30.0433 14.6378 31.1181 11.7717 32.5 11.7717C33.8819 11.7717 34.9567 14.6378 34.9567 16.4291Z" fill="white"/>
<path d="M26.1536 24.1063C25.13 23.4921 24.2087 22.7244 23.3898 21.8543C23.0316 21.4961 22.7245 21.0866 22.4174 20.6772C22.5198 19.8583 22.5709 19.3465 22.5709 19.3465C22.6733 19.3976 24.1064 20.3189 24.7717 20.3189C25.2324 20.3189 26.0001 22.2126 26.1536 24.1063Z" fill="#222B53"/>
<path d="M31.323 25.7953C31.0159 25.7441 30.7088 25.7441 30.4529 25.6929C29.1734 25.4882 27.9962 25.0787 26.8702 24.4646C26.6655 24.3622 26.4096 24.2087 26.2048 24.1063C25.1812 23.4921 24.26 22.7244 23.4411 21.8543C22.9804 20.3701 22.6222 19.3465 22.6222 19.2953C26.819 18.1693 28.6615 17.0945 29.4293 16.4291C29.8899 16.0709 29.9922 15.8661 29.9922 15.8661C29.9922 15.9173 29.9922 15.9685 29.9922 15.9685C30.0434 16.5315 30.0434 17.0945 30.0946 17.6063C30.0946 17.9646 30.1458 18.2717 30.197 18.6299C30.4017 21.4449 30.8623 23.8504 31.323 25.7953Z" fill="#222B53"/>
<path d="M31.63 25.8465C31.5788 25.8465 31.4765 25.8465 31.4253 25.8465C31.3741 25.8465 31.3741 25.8465 31.3229 25.8465C31.0158 25.7953 30.7087 25.7953 30.4528 25.7441C29.2245 22.5709 28.1497 19.2953 28.1497 19.2953L29.3268 18.6811L28.7639 18.0669L28.6615 17.9646C28.8662 17.4016 29.1733 16.8898 29.4804 16.4803C29.7875 16.0197 30.0946 15.7126 30.1969 15.5591C30.2481 15.5079 30.2481 15.5079 30.2481 15.5079V15.5591C30.2481 15.6102 30.2481 15.6102 30.1969 15.6614C30.1457 15.9173 30.0946 16.3268 30.0946 16.8386C30.0946 17.0945 30.0946 17.4016 30.1457 17.7087C30.1969 18.1181 30.2481 18.5787 30.2993 19.0394C30.5552 20.9331 31.0158 23.185 31.5276 25.3346C31.5276 25.4882 31.5788 25.6417 31.63 25.8465Z" fill="#222B53"/>
<path d="M42.5316 20.6772C42.2245 21.0866 41.9174 21.4961 41.5591 21.8543C40.7402 22.7244 39.819 23.4921 38.7953 24.1063C38.9489 22.2126 39.7166 20.3189 40.126 20.3189C40.7914 20.3189 42.2757 19.3976 42.3268 19.3465C42.3268 19.3465 42.4804 19.8583 42.5316 20.6772Z" fill="#222B53"/>
<path d="M42.4292 19.3465C42.4292 19.3976 42.0709 20.3701 41.6103 21.9055C40.7914 22.7756 39.8701 23.5433 38.8465 24.1575C38.3347 24.4646 37.7717 24.7717 37.2087 24.9764C37.1575 24.9764 37.1063 25.0276 37.0551 25.0276C36.7992 25.1299 36.5945 25.2323 36.3386 25.2835C36.1339 25.3858 35.878 25.437 35.6221 25.4882C35.5709 25.4882 35.4685 25.5394 35.4174 25.5394C35.1614 25.5906 34.8544 25.6417 34.5985 25.6929C34.2914 25.7441 34.0355 25.7953 33.7284 25.7953C34.189 23.8504 34.5985 21.4449 34.9055 18.6299C34.9567 18.2717 34.9567 17.9134 35.0079 17.5551C35.0591 17.0433 35.0591 16.5315 35.1103 15.9685C35.1103 15.9173 35.1103 15.9173 35.1103 15.8661C35.1103 15.8661 35.2126 16.0709 35.6733 16.4291C36.3898 17.1457 38.2323 18.2205 42.4292 19.3465Z" fill="#222B53"/>
<path d="M36.9017 19.2441C36.9017 19.2441 35.7757 22.4685 34.5985 25.6929C34.2914 25.7441 34.0355 25.7953 33.7284 25.7953C33.6773 25.7953 33.6773 25.7953 33.6261 25.7953C33.5749 25.7953 33.4725 25.7953 33.4214 25.7953C33.4725 25.6417 33.5237 25.437 33.5237 25.2323C33.9843 23.1339 34.4962 20.8307 34.7521 18.937C34.8032 18.4252 34.8544 17.9646 34.9056 17.5039C34.9056 17.1969 34.9568 16.9409 34.9568 16.685C34.9568 16.685 34.9568 16.685 34.9568 16.6339C34.9568 16.1732 34.9568 15.815 34.8544 15.5591V15.5079V15.4567C34.8544 15.4567 34.8544 15.4567 34.9056 15.5079C35.0591 15.6614 35.3151 15.9685 35.6221 16.4291C35.9292 16.8386 36.2363 17.3504 36.441 17.9134L35.7245 18.6811L36.9017 19.2441Z" fill="#222B53"/>
<path d="M32.5 16.5315C34.8179 16.5315 36.6969 14.1713 36.6969 11.2598C36.6969 8.34836 34.8179 5.98816 32.5 5.98816C30.1822 5.98816 28.3032 8.34836 28.3032 11.2598C28.3032 14.1713 30.1822 16.5315 32.5 16.5315Z" fill="white"/>
<path d="M37.4202 11.1507C37.6756 10.4016 37.5573 9.68336 37.156 9.54653C36.7547 9.40971 36.2223 9.90607 35.9669 10.6552C35.7115 11.4043 35.8298 12.1225 36.2311 12.2593C36.6324 12.3962 37.1648 11.8998 37.4202 11.1507Z" fill="white"/>
<path d="M27.5921 11.1308C27.8475 11.8799 28.3799 12.3763 28.7812 12.2395C29.1825 12.1027 29.3008 11.3845 29.0454 10.6353C28.79 9.88621 28.2576 9.38985 27.8563 9.52667C27.455 9.6635 27.3367 10.3817 27.5921 11.1308Z" fill="white"/>
<path d="M28.7126 12.0276C26.563 7.52362 29.5827 6.03937 29.5827 6.03937L28.1497 6.85827C32.4489 1.68897 35.5197 5.88583 35.5197 5.88583C38.4883 8.18898 36.5945 11.6693 36.5945 11.6693C36.5945 11.6693 36.2363 9.11024 34.9568 7.98425C34.9568 7.98425 33.4213 9.72441 29.8898 8.1378C29.8898 8.1378 29.0709 9.36614 29.378 11.0551C29.378 11.0551 29.0197 10.8504 28.9174 9.98032C28.9174 9.98032 28.4567 11.1063 28.7126 12.0276Z" fill="#192140"/>
<path d="M30.248 15.4567C30.248 15.4567 30.6063 17.5551 32.5 18.4764C32.5 18.4764 31.2205 19.4488 30.9646 20.2677C30.9646 20.3189 28.9173 17.2992 30.248 15.4567Z" fill="white"/>
<path d="M34.752 15.4567C34.752 15.4567 34.3937 17.5551 32.5 18.4764C32.5 18.4764 33.7795 19.4488 34.0354 20.2677C34.0354 20.3189 36.0827 17.2992 34.752 15.4567Z" fill="white"/>
<path d="M37.2087 24.9252C37.1575 24.9252 37.1063 24.9764 37.0551 24.9764C36.7992 25.0787 36.5945 25.1811 36.3386 25.2323L36.9528 24.6181L37.2087 24.9252Z" fill="#2B3B4E"/>
<path d="M41.559 43.811H23.4409L19.9606 20.2677H45.0393L41.559 43.811Z" fill="#C1C7DD"/>
<path d="M25.49 32.0303C25.7454 31.2812 25.6271 30.563 25.2258 30.4261C24.8245 30.2893 24.2921 30.7857 24.0367 31.5348C23.7813 32.2839 23.8996 33.0021 24.3009 33.1389C24.7022 33.2758 25.2346 32.7794 25.49 32.0303Z" fill="white"/>
<path d="M15.8478 31.9768C16.1032 32.7259 16.6355 33.2223 17.0369 33.0854C17.4382 32.9486 17.5565 32.2304 17.3011 31.4813C17.0456 30.7322 16.5133 30.2358 16.112 30.3727C15.7106 30.5095 15.5924 31.2277 15.8478 31.9768Z" fill="white"/>
<path d="M20.6771 37.26C22.9384 37.26 24.7715 34.9456 24.7715 32.0907C24.7715 29.2358 22.9384 26.9214 20.6771 26.9214C18.4157 26.9214 16.5826 29.2358 16.5826 32.0907C16.5826 34.9456 18.4157 37.26 20.6771 37.26Z" fill="#192140"/>
<path d="M16.9409 32.8583C14.8425 28.4056 17.7598 26.9725 17.7598 26.9725L16.3779 27.7402C20.5748 22.6733 23.5944 26.8189 23.5944 26.8189C26.5118 29.0709 24.6181 32.5 24.6181 32.5C24.6181 32.5 24.2598 29.9922 23.0314 28.9174C23.0314 28.9174 21.5472 30.6063 18.0669 29.0709C18.0669 29.0709 17.248 30.2993 17.5551 31.937C17.5551 31.937 17.1968 31.7323 17.0944 30.8622C17.1456 30.8622 16.685 31.937 16.9409 32.8583Z" fill="#192140"/>
<path d="M30.4015 40.0236C26.307 38.9488 24.5157 37.874 23.748 37.2599H17.6574C16.8897 37.874 15.0984 38.9488 11.0039 40.0236C11.0039 40.0236 10.9527 40.5354 10.8503 41.3543C11.1574 41.7638 11.4645 42.1732 11.8228 42.5315C12.5905 43.4016 13.5118 44.1181 14.5354 44.7323C14.7401 44.8858 14.9448 44.9882 15.2007 45.0906C16.2755 45.6536 17.4527 46.063 18.7322 46.2677C19.0393 46.3189 19.2952 46.3701 19.6023 46.3701C19.6535 46.3701 19.6535 46.3701 19.7047 46.3701C19.7559 46.3701 19.8582 46.3701 19.9094 46.3701C20.2165 46.3701 20.4724 46.4213 20.7795 46.4213C21.0866 46.4213 21.3425 46.4213 21.6496 46.3701C21.7007 46.3701 21.8031 46.3701 21.8543 46.3701C21.9055 46.3701 21.9055 46.3701 21.9567 46.3701C22.2637 46.3189 22.5196 46.3189 22.8267 46.2677C23.0826 46.2165 23.3897 46.1654 23.6456 46.1142C23.6968 46.1142 23.7992 46.063 23.8504 46.063C24.1063 46.0118 24.311 45.9606 24.5157 45.8583C24.7716 45.7559 24.9763 45.7047 25.2322 45.6024C25.2834 45.6024 25.3346 45.5512 25.3858 45.5512C25.9488 45.3465 26.4606 45.0394 26.9724 44.7323C27.996 44.1181 28.8661 43.4016 29.685 42.5315C30.0433 42.1732 30.3504 41.7638 30.6574 41.3543C30.4527 40.5354 30.4015 40.0236 30.4015 40.0236Z" fill="#222B53"/>
<path d="M23.0315 36.3898H18.2717C18.1181 36.5433 17.8622 36.8504 17.6063 37.2598H23.6968C23.4409 36.8504 23.185 36.5433 23.0315 36.3898Z" fill="white"/>
<path d="M31.4764 50.6181V42.7362C31.4764 41.6103 30.6063 40.7402 29.4803 40.7402H11.874C10.7481 40.7402 9.87798 41.6103 9.87798 42.7362V50.6181H31.4764Z" fill="#94B2E4"/>
<path d="M49.1858 32.038C49.4412 31.2888 49.3229 30.5706 48.9216 30.4338C48.5203 30.297 47.9879 30.7934 47.7325 31.5425C47.4771 32.2916 47.5954 33.0098 47.9967 33.1466C48.398 33.2834 48.9304 32.7871 49.1858 32.038Z" fill="white"/>
<path d="M39.4969 31.9824C39.7524 32.7315 40.2847 33.2279 40.686 33.091C41.0874 32.9542 41.2056 32.236 40.9502 31.4869C40.6948 30.7378 40.1625 30.2414 39.7611 30.3782C39.3598 30.5151 39.2415 31.2333 39.4969 31.9824Z" fill="white"/>
<path d="M44.3229 37.26C46.5842 37.26 48.4174 34.9456 48.4174 32.0907C48.4174 29.2358 46.5842 26.9214 44.3229 26.9214C42.0616 26.9214 40.2284 29.2358 40.2284 32.0907C40.2284 34.9456 42.0616 37.26 44.3229 37.26Z" fill="#192140"/>
<path d="M40.5867 32.8583C38.4883 28.4056 41.4056 26.9725 41.4056 26.9725L40.0237 27.7402C44.2205 22.6733 47.2402 26.8189 47.2402 26.8189C50.1575 29.0709 48.2638 32.5 48.2638 32.5C48.2638 32.5 47.9056 29.9922 46.6772 28.9174C46.6772 28.9174 45.193 30.6063 41.7127 29.0709C41.7127 29.0709 40.8938 30.2993 41.2009 31.937C41.2009 31.937 40.8426 31.7323 40.7402 30.8622C40.7914 30.8622 40.382 31.937 40.5867 32.8583Z" fill="#192140"/>
<path d="M54.0473 40.0236C49.9528 38.9488 48.1615 37.874 47.3937 37.2599H41.3032C40.5355 37.874 38.7441 38.9488 34.6496 40.0236C34.6496 40.0236 34.5985 40.5354 34.4961 41.3543C34.8032 41.7638 35.1103 42.1732 35.4685 42.5315C36.2363 43.4016 37.1575 44.1181 38.1811 44.7323C38.3859 44.8858 38.5906 44.9882 38.8465 45.0906C39.9213 45.6536 41.0985 46.063 42.378 46.2677C42.6851 46.3189 42.941 46.3701 43.2481 46.3701C43.2993 46.3701 43.2992 46.3701 43.3504 46.3701C43.4016 46.3701 43.504 46.3701 43.5552 46.3701C43.8622 46.3701 44.1182 46.4213 44.4252 46.4213C44.7323 46.4213 44.9882 46.4213 45.2953 46.3701C45.3465 46.3701 45.4489 46.3701 45.5 46.3701C45.5512 46.3701 45.5512 46.3701 45.6024 46.3701C45.9095 46.3189 46.1654 46.3189 46.4725 46.2677C46.7284 46.2165 47.0355 46.1654 47.2914 46.1142C47.3426 46.1142 47.4449 46.063 47.4961 46.063C47.752 46.0118 47.9567 45.9606 48.1615 45.8583C48.4174 45.7559 48.6221 45.7047 48.878 45.6024C48.9292 45.6024 48.9804 45.5512 49.0315 45.5512C49.5945 45.3465 50.1063 45.0394 50.6182 44.7323C51.6418 44.1181 52.5118 43.4016 53.3307 42.5315C53.689 42.1732 53.9961 41.7638 54.3032 41.3543C54.0985 40.5354 54.0473 40.0236 54.0473 40.0236Z" fill="#222B53"/>
<path d="M46.7283 36.3898H41.9685C41.8149 36.5433 41.559 36.8504 41.3031 37.2598H47.3937C47.1378 36.8504 46.8819 36.5433 46.7283 36.3898Z" fill="white"/>
<path d="M55.122 50.6181V42.7362C55.122 41.6103 54.2519 40.7402 53.126 40.7402H35.5197C34.3937 40.7402 33.5236 41.6103 33.5236 42.7362V50.6181H55.122Z" fill="#94B2E4"/>
</svg>
