<svg width="150" height="148" viewBox="0 0 150 148" fill="none" xmlns="http://www.w3.org/2000/svg">
<path d="M3.71925 101.256C22.0368 56.6193 50.5416 50.1192 92.1212 65.6591L104.926 92.6386C85.4726 112.73 46.1142 129.211 3.71925 101.256Z" fill="#DEDEFF"/>
<path d="M18.0061 95.9844L66.3418 87.8447M66.3418 87.8447L40.3991 77.2514M66.3418 87.8447L78.8207 85.7432M66.3418 87.8447L54.0319 106.047M78.8207 85.7432L91.2995 83.6418M78.8207 85.7432L63.0028 73.9314M78.8207 85.7432L74.3398 101.785" stroke="#C1C1FF" stroke-width="2"/>
<path d="M73.147 5.28006C117.577 17.0866 127.359 43.1054 118.04 84.0977L111.379 105.34C75.8006 87.9734 44.2655 58.0988 73.147 5.28006Z" fill="#D0D0FF"/>
<path d="M73.4011 6.18848L91.4421 49.0429M91.4421 49.0429L95.5731 22.7839M91.4421 49.0429L96.0998 60.1066M91.4421 49.0429L71.9554 41.6414M96.0998 60.1066L100.757 71.1703M96.0998 60.1066L103.561 42.9302M96.0998 60.1066L80.3131 59.4629" stroke="#DEDEFF" stroke-width="2"/>
</svg>
