<svg width="98" height="83" viewBox="0 0 98 83" fill="none" xmlns="http://www.w3.org/2000/svg">
<path fill-rule="evenodd" clip-rule="evenodd" d="M12.5563 81.3254L13.9219 82.4915L18.1243 79.8478L20.0593 81.7629L25.4451 76.1201L28.7023 77.9553L29.3545 73.2336L34.0932 67.8746L42.7383 68.5325L47.2016 70.1596L51.3605 68.3409L55.1581 69.4137L58.8046 64.6992L58.6327 60.8075L64.386 59.8567L68.5491 60.2009L70.2336 63.4563L74.2175 59.5892L77.3008 61.4049L77.8712 57.171L80.9203 53.8921L86.6208 54.1462L90.8833 58.7572L97.5322 56.4169L97.6047 52.6041L93.0896 41.1115L95.474 29.7961L89.1284 24.5386L88.502 21.1889L83.4889 18.8312L84.6309 13.0962L79.5681 8.63272L78.8496 4.60169L73.5353 0.695679L71.36 1.1537L70.2698 5.16116L67.6111 7.25147L67.9258 10.97L64.6666 16.4232L60.7479 19.1816L54.7057 16.0308L49.9297 17.0636L47.9211 20.7442L48.3301 28.5532L46.4675 29.4057L48.1096 31.6231L44.4228 36.2884L41.1242 39.8634L40.3291 43.0173L35.8326 42.2611L33.7185 43.6229L32.1924 40.8256L30.3039 42.9682L25.8572 42.6587L24.3591 47.3609L20.371 45.3423L18.3086 45.4284L16.6086 42.9466L13.0211 46.1272L10.9546 46.204L8.86531 50.2638L4.55004 50.3396L4.62769 51.8704L0.391113 54.9557L0.683077 57.0952L2.78273 56.4005L2.25264 60.2286L4.07897 60.7584L4.84408 65.2105L5.71997 68.5386L8.58473 68.6206L9.0672 72.8514L12.4165 73.0922L12.3275 77.3005L12.5563 81.3254Z" fill="#5C5DF7"/>
</svg>
