<svg width="84" height="42" viewBox="0 0 84 42" fill="none" xmlns="http://www.w3.org/2000/svg">
<path fill-rule="evenodd" clip-rule="evenodd" d="M79.9363 5.25608L77.4246 5.32166L75.1169 8.71023L72.5938 6.77464L71.3804 8.25937L67.9234 8.44791L67.4171 6.60454L66.5961 6.41703L63.9643 9.73899L62.2487 5.62189L60.1501 5.43745L58.6665 9.83633L56.9157 6.98469L56.0067 6.93858L55.7748 11.6274L53.4287 12.5568L52.177 8.2522L49.4727 8.12002L47.8328 9.58016L42.0235 8.29626L39.722 4.22937L37.9547 2.94854L34.156 5.10751L29.6337 1.29166L26.5691 0.0661621L23.841 2.15955L25.189 5.27145L25.0172 9.27891L21.6844 12.7566L20.3364 11.4194L17.0089 12.2781L12.1159 17.0479L7.08107 21.869L2.51733 27.0855L1.98517 32.5757L3.72556 34.9508L0.981934 41.1572H5.03215L12.9876 33.7346L27.9596 33.7325L30.2528 31.0141L39.7468 31.9076L45.1761 22.5073L57.8548 21.3863L60.6719 13.7178L66.5236 17.1934L68.9877 14.7537L73.977 16.7754L77.1699 13.3888L80.1548 14.7537L83.3509 11.9861L82.0722 7.95402L79.9363 5.25608Z" fill="#5C5DF7"/>
</svg>
