<svg width="121" height="79" viewBox="0 0 121 79" fill="none" xmlns="http://www.w3.org/2000/svg">
<path fill-rule="evenodd" clip-rule="evenodd" d="M117.901 23.2312L114.78 25.2047L113.816 21.2116L112.198 20.8807L111.65 23.1308L108.358 22.9392L106.241 20.7024L103.064 26.0091L99.9035 26.5132L99.3051 22.1123L95.1172 19.0834L94.8035 15.3485L90.3164 13.6814L89.7469 8.78656L87.0043 7.2219L82.8371 10.551L77.9297 8.08159L72.1618 8.00269L63.8937 0.614868L58.9354 0.690693L54.966 0.767543L51.7647 1.15487L47.9547 3.35174L44.1613 4.75963L39.0819 9.86348L37.8954 13.3115L39.4888 16.1518L38.4048 20.8141L32.5065 20.6419L27.5825 19.1213L25.9932 18.7637L24.0862 19.8621L18.7635 19.3037L16.9558 20.1388L18.3535 22.1482L24.6504 25.3062L13.7411 32.4768L16.3854 43.4222L10.7231 47.7893L2.33383 55.546L1.96421 59.5648L3.81435 61.7883L3.13414 68.342L0.224854 71.0707L0.552019 72.6231L2.80283 75.279L5.70487 74.8251L10.8898 76.4236L12.0867 78.7957L17.6661 74.2861L21.8923 78.3848L28.799 77.3078L34.6983 76.1735L39.6948 77.8222L43.5649 75.9809L49.0677 73.6262L53.7143 74.3527L60.6862 73.5279L61.5724 66.5417L58.9147 65.0262L59.4655 61.3764L57.3824 60.7872L56.4724 58.494L59.0545 55.6403L56.6743 53.9455L57.5015 47.9277L60.2317 48.6501L62.9008 47.1704L71.6224 47.0905L74.6435 46.0945L77.9452 48.0394L83.0214 44.5289L87.5531 47.5731L91.8497 45.3599L92.3912 47.7647L95.227 48.0937L95.053 51.2035L97.5968 54.2037L96.5677 57.0328L97.4125 57.8198L100.274 56.5584L102.836 58.4817L104.454 57.0287L108.53 57.0246L109.482 55.2161L112.232 52.636L110.1 50.7434L110.724 44.8936L115.662 44.5227L116.56 46.3005L119.541 46.364L120.279 43.5083L118.917 41.8033L120.485 40.7048L120.555 36.9904L117.114 35.0886L116.863 27.5522L118.841 24.1637L117.901 23.2312Z" fill="#5C5DF7"/>
</svg>
