<svg width="65" height="83" viewBox="0 0 65 83" fill="none" xmlns="http://www.w3.org/2000/svg">
<path fill-rule="evenodd" clip-rule="evenodd" d="M39.0472 74.8278L39.6404 68.7116L44.4216 63.2501L49.4792 58.4035L54.5461 53.4677L58.6108 52.4194L59.6689 53.4677L62.1216 50.904L62.2717 47.4365L60.7291 43.8758L64.0049 41.3603L63.2739 36.9563L58.4917 33.4222L52.6318 33.6702L51.0446 29.8635L48.8197 28.6063L47.9986 27.1318L44.3657 27.0508L42.3167 22.7206L45.4807 20.5514L45.2188 19.8249H41.1903L41.4792 16.4866L42.5735 13.8614L41.239 9.11003L40.537 4.57692L36.5841 1.04081L32.4863 0.439331L29.5594 1.35845L28.8781 5.41202L27.4504 9.49223L27.7351 12.2537L30.8515 13.8778L29.1473 16.5122L24.9221 16.0921L20.1948 17.043L14.5181 16.8083L10.1252 18.1752L7.34426 17.3586L4.42566 21.7513L1.73586 24.5681L1.57746 30.2519L0.268799 35.077L3.36858 35.1488L7.59999 38.3262L9.61474 43.1114L13.1742 46.1208L17.7069 44.218L17.8767 51.8169L19.6865 53.1634L22.3804 51.3046L28.1669 57.1144L28.0085 62.4335L31.3091 65.5382L31.1352 68.5599L30.2914 72.2538L38.2355 82.6009L40.683 77.0595L39.0472 74.8278Z" fill="#5C5DF7"/>
</svg>
