<svg width="101" height="90" viewBox="0 0 101 90" fill="none" xmlns="http://www.w3.org/2000/svg">
<path fill-rule="evenodd" clip-rule="evenodd" d="M17.257 10.65L14.2359 11.6716L11.3142 15.97L8.10884 14.8316L3.50471 19.0707L3.3608 19.0615L2.7075 21.1887L3.74077 23.1499L0.578857 26.2023L1.82022 27.1758L2.50975 29.9762L6.92441 30.6791L7.99391 32.5655L11.9085 31.7212V36.6529L14.794 40.1644L16.8771 40.0302L18.4984 38.4225L20.185 40.7546L19.3381 42.2803L21.6914 44.3676L20.2502 46.5429L21.5847 49.2788L16.816 49.2009L18.0522 51.3834L17.0003 54.8519L13.6116 58.2927L9.21147 57.3336L8.2807 56.3479L7.13873 57.8368L6.39847 61.1321L7.93076 63.5462L12.9925 63.4693L21.2731 70.8653L26.9084 70.9442L31.4784 73.2436L35.6704 69.896L39.3511 71.9904L39.907 76.791L44.4128 78.4632L44.742 82.358L48.9072 85.3715L49.4331 89.2376L51.2532 88.9455L54.8262 82.9697L57.5263 85.8172L59.6974 85.9453L60.2037 83.8734L59.977 76.0378L63.0912 77.3064L65.3358 75.3124H68.799L70.5726 76.6639L71.6421 74.547L77.5393 68.6285L78.2568 64.8485L81.6444 60.3154L84.9223 64.4499L86.9598 62.5902L88.6101 64.1159L88.6847 66.5853L92.3974 67.5044L93.4617 69.3827L97.2179 68.7412L100.571 66.3814L100.72 63.2193L100.565 58.9086L97.8391 55.3653L94.3386 50.7748L92.4864 45.3523L94.8221 41.2034L93.7827 37.3958L95.463 34.0717L93.9483 29.4157L95.2632 25.5916L95.4734 22.8291L89.9612 16.7959L86.4711 16.343L80.9217 10.2248L81.3524 5.13833L77.2598 5.28179L75.9056 0.363403L71.5075 0.873685L71.2176 4.18847L67.5597 6.32899L60.183 5.88019L55.0043 10.4379L54.6843 13.9013L51.6581 14.4607L46.2992 7.86804L44.507 11.0045L41.5687 10.6418L37.1996 3.92923L29.9233 4.21101L23.9204 10.9379L22.8033 9.43167L20.6664 11.4738L17.257 10.65Z" fill="#5C5DF7"/>
</svg>
