<svg width="51" height="97" viewBox="0 0 51 97" fill="none" xmlns="http://www.w3.org/2000/svg">
<path fill-rule="evenodd" clip-rule="evenodd" d="M41.1617 66.8139L43.9457 64.6632L47.6283 67.4953L50.2643 66.359L50.5573 63.1036L49.612 56.9444L46.6417 51.3917L47.8613 49.3168L48.8014 45.9938L49.1689 44.0203L47.8654 41.9495L50.2384 39.6757L46.27 36.6878L41.845 32.1445L43.1547 25.9227L45.6063 25.2167L45.977 20.4397L44.7998 16.0511L42.7809 17.4774L38.9492 13.9434L33.5468 8.00648L36.0254 5.06058L34.0241 0.532593L32.2826 0.728303L29.6477 1.11255L26.4651 3.13421L23.5538 2.82169L19.0708 7.41423L15.0174 12.1482L12.1237 14.1668H9.40904L6.97601 17.7818L4.57921 17.4529L5.38677 19.5022L4.3649 22.9584L2.45988 26.3377L2.07578 30.5194L3.74887 35.3312L4.24997 42.51L0.444092 46.3545L2.21969 51.778L3.04899 57.6975L0.977288 61.1701L2.24454 66.192L1.02077 70.6257L0.707066 76.6077L1.84076 79.4829L1.12016 85.6288L5.56071 92.2194L8.86963 92.3834L10.024 96.3519L10.8947 96.0076L11.1453 90.996L13.4427 91.1087L14.4252 92.7092L15.5144 89.4774L18.8782 89.7695L20.2117 92.9674L22.2399 90.4099L24.148 90.8525L24.6057 92.5094L26.93 92.3813L28.4488 90.5257L30.9077 92.411L32.7962 89.6373L36.0202 83.9617L35.6982 71.9362L38.681 67.5486L41.1617 66.8139Z" fill="#5C5DF7"/>
</svg>
