<svg width="137" height="84" viewBox="0 0 137 84" fill="none" xmlns="http://www.w3.org/2000/svg">
<mask id="mask0" mask-type="alpha" maskUnits="userSpaceOnUse" x="0" y="0" width="137" height="84">
<path fill-rule="evenodd" clip-rule="evenodd" d="M0.859863 0.200562H136.897V83.7926H0.859863V0.200562Z" fill="white"/>
</mask>
<g mask="url(#mask0)">
<path fill-rule="evenodd" clip-rule="evenodd" d="M34.4947 4.22339L36.5653 8.67966L36.9774 10.7116L41.0608 11.8418L38.7892 15.7724L35.7215 15.1945L35.1211 17.8699L30.1007 17.2458L26.034 21.8702H21.9879L13.4019 25.975L12.3303 27.5683L12.1657 30.794L6.48585 31.8893L0.859863 36.8805L1.66535 40.7281L5.19583 41.9372L7.07185 41.141L9.4117 38.8253L15.6868 38.6634L24.9437 46.7767L28.3552 46.917L30.9155 46.2838L38.1908 51.2913L40.2335 58.5982L39.5761 62.5042L36.4152 64.2902L36.2837 66.2555L36.7589 70.4915L33.4614 73.6003L32.1362 75.9611L34.0878 78.1467L39.2748 78.9009L41.5722 82.2352L46.7509 83.8541L47.7718 80.8283L50.0733 83.4545L54.2467 82.2136L59.3023 77.949L62.7354 74.5522L66.7069 66.5353L76.2009 61.7644L80.6415 62.0544L83.0517 59.1884L87.1589 62.5042L88.4386 61.122L88.9045 57.4393L91.4421 56.0263L92.8491 54.0128L95.9271 53.4329L97.1053 48.62L101.269 45.1331L105.253 44.8052L111.776 50.9593L116.655 50.6827L119.01 47.1107L124.592 49.4141L128.378 46.9621L131.393 45.9262L128.54 41.1226L130.447 35.3055L132.44 32.8392L136.897 32.4273L135.985 29.9476L128.093 29.3697L118.72 28.6452L115.76 35.739L111.896 33.3034L110.078 30.8647L106.595 35.2789L101.844 37.5547L96.9666 41.1349L89.9615 38.2074L86.2188 37.5864L82.385 33.4601L85.3108 29.1934L82.7991 24.6378L77.491 22.8374L76.3241 20.6713H72.5048V16.4825L68.6016 15.052L66.1976 12.3766L62.928 11.6061L61.5707 8.32307L56.5535 7.51871L54.2001 12.4842L51.7578 10.8714L51.4544 6.51249L49.8725 5.39766L47.4135 8.74626L41.4179 3.28992L38.2943 0.200562L34.4947 4.22339Z" fill="#5C5DF7"/>
</g>
</svg>
