<svg width="72" height="100" viewBox="0 0 72 100" fill="none" xmlns="http://www.w3.org/2000/svg">
<path fill-rule="evenodd" clip-rule="evenodd" d="M70.316 74.9743L65.5038 76.335L67.3881 71.2476L64.4156 67.7145L64.5585 63.2931L58.6788 62.3975L58.3465 55.396L62.2714 51.0269L67.1738 51.7861L69.5136 49.9848L69.115 48.413L66.0235 49.9438L63.0345 47.4528L59.4408 47.3053L56.1713 45.4332L57.0648 41.7014L63.2871 39.9011L64.3059 36.1539L68.7951 30.5285L68.2288 25.7556L63.2405 20.3577L66.7607 14.9967L62.6825 15.923L58.5608 20.1548L55.6391 18.0665L51.3549 18.2223L49.6518 12.5631L45.967 11.3468L42.0058 13.3869L36.941 6.60467L32.3565 11.2843L27.3093 8.16011H24.0418L21.1946 4.74799L15.9082 5.61997L10.98 4.48157L10.3754 1.19548L7.99411 0.744629L7.40915 7.40391L3.62397 9.20219L3.40552 12.0139L2.1538 15.6637L3.69023 20.3864L1.9985 23.736L3.04522 27.5631L0.726074 31.6843L2.40435 36.5904L5.81163 41.061L8.70953 44.8307L8.87518 49.4663L8.73438 52.4645L13.4834 52.9932L16.6547 57.1492L17.0709 62.4939L16.4341 67.5116L18.4924 72.7927L22.3169 74.3697L24.282 77.9027L22.8035 80.5177L23.8337 81.4829L28.2877 80.8261L30.965 86.4515L35.5391 86.6923L36.5041 91.2172L42.2025 91.4508L43.8787 93.2921L44.2908 97.2412L46.8491 99.1081L50.8869 96.3938L52.9017 95.8497L55.4414 98.6593L59.8094 96.6387L64.7894 97.5353L67.7018 95.8343L66.0711 87.18L67.1572 83.6685L67.7846 78.6753L71.6122 76.5758L70.316 74.9743Z" fill="#5C5DF7"/>
</svg>
