<svg width="86" height="87" viewBox="0 0 86 87" fill="none" xmlns="http://www.w3.org/2000/svg">
<path fill-rule="evenodd" clip-rule="evenodd" d="M6.23644 72.8126L7.78633 76.8642L12.7766 77.8048L16.3113 82.7334L20.2869 83.5204L23.4426 86.6425L24.6716 82.1197L24.8362 76.1992L27.7175 73.1969L30.956 68.3041L34.1169 69.2325L38.3969 67.9025L44.1244 68.1402L48.8776 67.1852L52.6856 67.5602L53.5511 66.2189L50.881 64.8233L50.5238 61.3866L51.9909 57.1958L52.7539 52.6657L56.4128 51.5161L60.991 52.1882L62.3939 53.4445L64.3589 50.6328L68.6069 49.4442L71.0368 45.5945L74.47 45.1509L73.7949 41.4334L75.8449 39.0346L80.6799 39.2775L84.726 37.054L85.6371 33.2412L85.9218 30.8435L81.238 30.4623L78.72 26.2489L78.9716 21.7271L79.8651 20.0353L79.2574 19.0312L76.961 20.2854L75.6875 18.5639L76.6959 16.2769L72.2699 15.2338L66.9535 16.4664L63.1828 11.7807L59.9536 12.6035L58.5942 9.32864L60.6897 5.7956L56.5453 2.04739L53.4124 3.79648L49.4626 0.187622L49.7183 5.25868L45.8451 10.0459L36.9392 10.6453L33.5319 16.0658L22.5905 24.3399L16.2108 31.5505L5.49203 40.8094L0.931396 47.0721L1.49255 50.6933L4.76109 55.4682L1.59815 62.1756L5.58832 66.4146L6.23644 72.8126Z" fill="#5C5DF7"/>
</svg>
