<svg width="119" height="97" viewBox="0 0 119 97" fill="none" xmlns="http://www.w3.org/2000/svg">
<g filter="url(#filter0_d)">
<path fill-rule="evenodd" clip-rule="evenodd" d="M72.7143 12.7812L71.3218 7.99915L66.7094 11.2176L61.8112 8.51455L56.7298 12.0507L51.842 10.7391H45.7336L42.8056 8.65698L41.4266 10.0936L37.2283 10.2565L31.0381 15.9874L27.2549 17.8205L21.0709 17.4066L17.5508 15.2107L15.7534 16.5756L12.8089 19.4036L10.3759 18.422L8.36841 23.0197L13.8464 27.0456L14.5742 31.1237L19.7892 35.7204L18.6814 41.273L23.4718 43.5273L24.1272 47.0121L30.6384 52.407L28.1971 63.9867L32.2235 74.2313L41.5415 74.5479L47.7152 76.5573L48.8313 81.5238L54.4366 82.5751L59.6898 82.4941L65.2796 86.8203L66.9796 87.2076L71.8208 88.6995L76.8474 88.846L77.6891 85.2382L76.0698 82.3548L77.4541 78.3299L82.8171 72.9392L86.7276 71.4872L90.6349 69.2319L94.0639 68.8241L97.2776 68.7596L95.8395 66.494L96.7051 62.6403L98.6142 60.1483L100.093 61.7068L103.724 62.4979L106.602 59.5776L107.479 56.686L105.664 53.4665L110.535 53.5495L109.619 51.6723L110.909 49.7132L108.601 47.6659L109.521 46.011L108.796 45.0059L107.69 46.1022L104.792 46.2877L101.411 42.1665V38.032L97.9371 38.78L96.7579 36.6928L92.1776 35.9622L91.4218 32.8831L89.612 31.468L93.0327 28.1655L92.1392 26.4697L92.8412 24.1847L90.7136 24.0208L86.0929 26.3867L78.5671 27.1767L79.6769 21.7552L75.606 18.5163L75.9259 15.1851L72.7143 12.7812Z" fill="#5C5DF7"/>
</g>
<defs>
<filter id="filter0_d" x="0.368408" y="-0.000854492" width="118.54" height="96.8469" filterUnits="userSpaceOnUse" color-interpolation-filters="sRGB">
<feFlood flood-opacity="0" result="BackgroundImageFix"/>
<feColorMatrix in="SourceAlpha" type="matrix" values="0 0 0 0 0 0 0 0 0 0 0 0 0 0 0 0 0 0 127 0"/>
<feOffset/>
<feGaussianBlur stdDeviation="4"/>
<feColorMatrix type="matrix" values="0 0 0 0 0.360784 0 0 0 0 0.364706 0 0 0 0 0.968627 0 0 0 0.5 0"/>
<feBlend mode="normal" in2="BackgroundImageFix" result="effect1_dropShadow"/>
<feBlend mode="normal" in="SourceGraphic" in2="effect1_dropShadow" result="shape"/>
</filter>
</defs>
</svg>
