<svg width="80" height="103" viewBox="0 0 80 103" fill="none" xmlns="http://www.w3.org/2000/svg">
<path fill-rule="evenodd" clip-rule="evenodd" d="M13.434 13.7613L10.682 16.4858L10.7669 20.4728L4.37688 23.6329L2.65409 26.8944L2.87461 30.7471L4.96081 32.0177L5.63274 42.4836L1.38581 46.2994L3.84058 51.3982L0.188965 56.6229L0.675571 59.035L6.87824 63.0199L7.56984 69.0931L5.30454 71.332L7.15468 75.4624L3.75361 78.8304L5.83463 81.6493L4.52804 85.3852L7.85456 85.2571L9.52869 83.5152L12.8635 85.8863H18.8042L23.3949 87.1148L28.5954 83.5009L33.4935 86.2008L38.6816 82.5848L40.3422 88.2922L43.7153 90.818L43.3954 94.1645L47.5171 97.4445L46.5397 102.197L52.6668 101.554L57.362 99.1516L60.4256 99.3842L65.1395 95.0406L68.203 96.1288L70.9011 92.1603L74.4616 90.9543L77.6421 91.7228L79.5088 89.9409L77.3895 87.0831L77.667 84.7858L73.0804 84.0542L71.6382 76.5926L73.2823 70.8247L67.6211 61.4358L69.2507 59.2348L67.7319 57.5L63.4167 59.242L62.1774 52.1738L57.2005 52.3122L52.5115 54.2549L47.5958 54.591L47.2883 51.2516L41.9056 51.1143L38.3927 53.011L35.9276 50.7608L38.021 46.7636L33.3817 43.7029L35.7319 41.0439V37.639L30.8865 32.5331L33.8165 28.9498L39.5699 27.9262L39.9498 25.1781L30.2798 15.9079L30.1287 9.16461L21.2994 0.998047L14.6184 5.91745L12.9867 2.03501L11.033 1.86286L8.88782 9.17691L13.434 13.7613Z" fill="#5C5DF7"/>
</svg>
