<svg width="48" height="82" viewBox="0 0 48 82" fill="none" xmlns="http://www.w3.org/2000/svg">
<path fill-rule="evenodd" clip-rule="evenodd" d="M5.94967 57.1645L9.54537 57.2423L10.4937 58.9494L12.7673 60.2343L14.2302 63.7418L19.7765 63.5122L25.1137 67.449L25.9046 72.2301L29.109 73.513L33.2596 77.0112L37.0127 74.8799L39.4199 76.6167L41.6179 80.5053L46.5709 81.6017L47.7129 80.5852L43.1812 73.8531L43.9111 67.6058L42.7899 64.7521L43.1181 58.4893L44.3056 54.1837L43.0052 49.0297L45.1059 45.512L44.3294 39.9829L42.4109 34.1157L46.3152 30.1697L45.8503 23.5135L44.1524 18.6299L44.5717 14.063L46.5222 10.6089L47.4281 7.54616L46.1619 4.33282L46.3825 1.09078L41.5268 0.589722L38.4156 1.56623L34.1697 5.20276L28.5603 4.86872L25.7732 4.43118L24.246 6.3514L23.5306 12.4L22.5201 16.6462L17.8932 19.1904L13.2508 18.9558L11.7651 20.6916L12.5364 24.9214L8.58044 25.4337L6.19193 29.2168L1.92223 30.4095L0.0751953 33.0552L2.3902 35.125L3.12425 39.9204L4.53333 44.9167L3.37583 47.6986L3.18015 49.9242H6.86179L7.56996 51.8987L4.465 54.0249L5.94967 57.1645Z" fill="#5C5DF7"/>
</svg>
