<svg width="71" height="75" viewBox="0 0 71 75" fill="none" xmlns="http://www.w3.org/2000/svg">
<path fill-rule="evenodd" clip-rule="evenodd" d="M15.5418 61.693L18.6737 59.9439L23.8462 64.6215L21.6078 68.4004L22.4931 70.5358L25.5287 69.7663L29.3055 74.4613L34.272 73.3085L39.2924 74.491L40.8961 73.786L40.9592 72.0226L39.0138 70.7981L40.2697 68.9824L40.7957 66.1123L45.1451 65.7988V62.9902L47.1899 63.3017L47.0522 61.5177L49.2264 60.2974L54.9725 59.5555L61.9237 62.2309L62.8047 60.4839L62.4683 56.2284L65.0162 55.1833L66.9109 53.2364V49.2986L70.1949 47.984L69.4247 45.116L66.212 45.036L65.2999 41.7284L69.1762 39.8963L69.8553 38.1155L65.1498 35.4462L63.1164 30.2583H56.307V24.5889L55.1971 22.391L57.5059 21.1214L57.4376 18.3323L55.3648 16.5166L55.0863 13.9293L58.9626 9.29374L58.9937 6.69109L55.5264 2.97976L50.475 4.64791L47.9581 0.984741L43.2018 4.12431L24.4809 2.63035L21.5675 5.92567L21.7186 10.1862L12.7723 16.6693L7.18154 12.6721L0.320392 13.087L0.197188 15.4233L3.75355 22.7711L0.0222168 27.4959L7.44451 35.8694L8.50055 44.537L15.8421 50.975L8.03465 51.6031L11.3167 57.8331L15.5418 61.693Z" fill="#5C5DF7"/>
</svg>
