<svg width="93" height="86" viewBox="0 0 93 86" fill="none" xmlns="http://www.w3.org/2000/svg">
<path fill-rule="evenodd" clip-rule="evenodd" d="M91.5506 50.8563L92.3023 47.7526L88.1372 45.3508L83.4212 41.9366L84.0642 37.0151L88.278 36.6954L89.0648 33.4288L92.2557 32.4021L92.9514 28.2174L88.6703 26.9509L84.5435 23.6504L79.1929 23.4886L77.2662 19.4176L72.8432 15.0433L70.6814 10.3298L70.2187 10.7622L69.0839 12.9232H64.808L62.8864 14.6529L60.1521 12.5995L57.2304 13.8823L55.5055 12.2849L56.5636 9.38509L54.1244 6.50578L54.2745 3.88982L51.6458 3.58344L51.2224 1.69806L47.4921 3.61931L43.0287 0.620117L37.9836 4.10807L34.538 2.07821L31.7716 2.98709L23.1431 3.06496L20.357 4.61221L18.2656 4.05991L17.6496 8.53462L20.4078 10.4938L17.5244 13.6846L18.0638 15.0453L20.4782 15.7298L19.9035 19.5538L22.5488 21.0591L21.5052 29.3343L13.6957 30.2606L9.18682 29.5546L3.94286 31.7996L0.420654 33.477L2.51203 36.2589V40.9263L5.54245 42.7912L7.75909 39.587L10.3029 43.2615V48.9145L13.3727 53.7079L12.9948 56.7696L17.5606 58.3794L20.1106 63.2578L15.4433 68.71L19.4408 70.081L17.8236 74.1653L24.5201 76.9934L29.0176 77.9176L30.8035 85.2768L33.4643 83.127L35.0556 79.5827L36.7401 83.4693L38.8387 83.958L47.2953 75.2976L54.9899 67.2284L63.5418 66.3062H66.0432L68.0973 69.0205L73.1186 62.7762L77.4422 61.2505L80.8536 59.6417L84.119 61.7515L86.0706 57.7492L88.5792 56.0933L88.3308 52.1668L91.5506 50.8563Z" fill="#5C5DF7"/>
</svg>
