<svg width="690" height="341" viewBox="0 0 690 341" fill="none" xmlns="http://www.w3.org/2000/svg">
<path d="M15.0402 235.21C40.4326 167.643 82.7659 156.647 145.637 178.023L165.993 217.793C99.7216 258.474 65.0099 278.88 15.0402 235.21Z" fill="#7C85F4"/>
<path d="M36.1684 226.689L108.082 212.353M108.082 212.353L68.8148 197.674M108.082 212.353L126.648 208.652M108.082 212.353L90.4897 240.124M126.648 208.652L145.214 204.951M126.648 208.652L102.466 191.698M126.648 208.652L120.666 232.841" stroke="#E0E0E0" stroke-width="2"/>
<path d="M639.843 91.5362C654.231 158.789 626.17 189.479 565.188 204.851L528.624 183.512C560.537 116.669 577.714 82.3799 639.843 91.5362Z" fill="#5C5DF7"/>
<path d="M638.804 92.4907L593.895 145.611M593.895 145.611L631.712 133.311M593.895 145.611L582.3 159.324M593.895 145.611L590.549 114.606M582.3 159.324L570.706 173.038M582.3 159.324L610.264 157.625M582.3 159.324L572.453 137.837" stroke="#3839C1" stroke-width="2"/>
<path d="M47.3872 95.2605C113.185 75.246 146.134 100.616 166.601 160.082L148.425 198.317C79.1262 172.162 43.5094 157.941 47.3872 95.2605Z" fill="#5C5DF7"/>
<path d="M48.4264 96.2153L105.148 136.48M105.148 136.48L89.6997 99.8364M105.148 136.48L119.792 146.875M105.148 136.48L74.5373 142.431M119.792 146.875L134.436 157.27M119.792 146.875L115.738 119.154M119.792 146.875L99.213 158.502" stroke="#3839C1" stroke-width="2"/>
<path d="M652.88 187.244C632.933 264.031 588.127 281.163 517.297 265.475L490.631 224.561C558.107 172.143 593.552 145.671 652.88 187.244Z" fill="#3839C1"/>
<path d="M557.092 230.321L542.068 237.527M557.092 230.321L585.02 244.519M557.092 230.321L578.124 220.233M557.092 230.321L565.084 209.988M626.2 197.175L578.124 220.233M578.124 220.233L608.782 225.867M578.124 220.233L591.961 190.086" stroke="#E0E0E0" stroke-width="2"/>
<rect x="143.773" y="50.7081" width="423.257" height="279.484" fill="#DEE1FF"/>
<rect x="163.928" y="96.3927" width="184.083" height="151.835" fill="white"/>
<rect x="360.105" y="96.3927" width="184.083" height="151.835" fill="white"/>
<rect x="348.012" y="254.946" width="196.176" height="63.1527" fill="white"/>
<rect x="163.928" y="263.009" width="127.649" height="49.7159" fill="white"/>
<path fill-rule="evenodd" clip-rule="evenodd" d="M507.525 157.074C507.353 156.545 506.86 156.186 506.304 156.186C505.435 156.186 504.817 157.031 505.08 157.859L561.233 334.905C561.485 335.699 562.222 336.239 563.056 336.239C564.354 336.239 565.275 334.971 564.874 333.736L558.708 314.74H585.07L591.465 334.905C591.717 335.699 592.455 336.239 593.288 336.239C594.587 336.239 595.508 334.971 595.107 333.736L537.758 157.074C537.586 156.545 537.093 156.186 536.537 156.186C535.668 156.186 535.05 157.031 535.313 157.859L538.405 167.608H510.945L507.525 157.074ZM511.817 170.295H539.257L544.158 185.747H516.833L511.817 170.295ZM545.01 188.435H517.706L522.286 202.543H549.485L545.01 188.435ZM523.158 205.231H550.337L555.238 220.683H528.174L523.158 205.231ZM556.304 224.042H529.265L533.845 238.151H560.778L556.304 224.042ZM534.782 241.039L561.631 240.838L566.745 256.962H539.951L534.782 241.039ZM567.602 259.665H540.829L545.84 275.102H572.498L567.602 259.665ZM546.875 278.291L573.563 278.461L578.251 293.241L579.124 295.992L583.826 310.82H557.435L552.622 295.992L551.729 293.241L546.875 278.291Z" fill="#525A76"/>
<path d="M579.124 295.992L578.251 293.241H551.729L552.622 295.992H579.124Z" fill="#525A76"/>
<path d="M633.542 334.223C633.542 334.223 630.462 333.665 628.168 334.223C624.344 335.154 621.376 337.33 620.106 340.27H626.152H630.855L633.542 340.27C634.045 338.03 633.969 336.688 633.542 334.223Z" fill="#3C4153"/>
<path d="M618.762 340.27V334.223C618.762 334.223 615.693 333.714 613.387 334.223C609.336 335.117 605.733 337.225 604.653 340.27C604.653 340.27 609.676 341.09 612.715 340.27H616.075L618.762 340.27Z" fill="#3C4153"/>
<path d="M628.839 334.223L628.168 331.536L633.542 330.192L633.542 334.223C631.706 335.201 630.676 335.553 628.839 334.223Z" fill="#F3A185"/>
<path d="M614.059 334.223V330.192H619.434L618.762 335.567C616.792 335.915 615.701 336.018 614.059 334.223Z" fill="#F3A185"/>
<path d="M614.731 242.853V236.807L618.762 234.791L620.777 242.182L614.731 242.853Z" fill="#F5B8A3"/>
<path d="M621.449 233.448C621.262 236.782 618.192 239.261 615.287 239.098C612.383 238.936 610.18 236.101 610.366 232.767C610.553 229.432 610.483 225.895 613.387 226.058C616.292 226.221 621.636 230.114 621.449 233.448Z" fill="#F3A185"/>
<path d="M618.09 228.745C616.48 229.282 606.338 229.663 608.684 226.729C609.784 225.355 611.235 225.666 612.715 224.714C614.128 223.805 614.871 220.854 616.075 222.027C616.65 222.587 622.016 220.966 622.121 222.698C622.227 224.43 624.054 228.591 625.48 228.745C626.907 228.899 620.218 240.664 619.434 236.807C619.225 235.779 619.434 234.12 619.434 234.12C621.449 233.68 621.842 231.981 619.434 231.432C618.29 231.172 619.7 228.208 618.09 228.745Z" fill="#333333"/>
<path d="M600.622 231.432C601.966 232.104 597.935 241.51 597.935 241.51H595.92C593.996 234.287 594.44 231.14 597.263 226.729C599.25 226.517 596.591 232.104 596.591 232.104C596.591 232.104 599.279 230.76 600.622 231.432Z" fill="#F3A185"/>
<path d="M604.653 258.306C606.155 253.464 609.897 247.186 612 243.5L611.372 260.993C608.314 264.591 607.761 267.58 603.982 267.04C597.375 267.733 596.434 256.062 595.248 240.838L599.279 240.166C600.738 247.789 600.65 252.827 604.653 258.306Z" fill="#C3D9FE"/>
<path d="M608.684 273.086L608.684 269.727C606.088 268.495 603.743 266.538 602.399 267.21C601.056 267.881 602.281 274.224 608.684 273.086Z" fill="#F3A185"/>
<path d="M610.7 276.445H618.09L619.434 331.536H613.387C607.375 307.797 607.046 295.851 610.7 276.445Z" fill="#181F3F"/>
<path d="M629.511 275.773H616.075C616.98 300.592 620.337 311.874 626.824 331.536H634.214C629.789 310.625 628.147 298.621 629.511 275.773Z" fill="#2D3971"/>
<path d="M630.183 277.789H609.356C609.183 257.383 608.001 242.565 614.5 242L620.106 240.166C631.703 241.154 631.415 247.73 632.199 258.306H630.183V277.789Z" fill="#3A51D7"/>
<path d="M632.199 258.306H624.137C622.858 265.375 618.875 267.832 608.684 269.727V273.086C623.758 273.067 629.597 269.984 632.199 258.306Z" fill="#C3D9FE"/>
<rect x="143.773" y="50.7081" width="423.257" height="28.2172" fill="#5C5DF7"/>
<circle cx="525.377" cy="65.4881" r="6.71837" fill="#D2D5F9"/>
<circle cx="544.188" cy="65.4881" r="6.71837" fill="#3C4153"/>
<path d="M214.316 278.461L201.551 297.944L263.36 295.257L243.205 269.055L228.425 293.241L214.316 278.461Z" fill="#3C4153"/>
<path d="M189.458 283.836L176.021 303.319L274.11 299.288L267.391 265.696L245.221 291.226L226.409 276.445L211.629 300.632L189.458 283.836Z" fill="#3B46F4"/>
<path d="M184.755 293.241L176.021 303.319H278.812V277.117L252.611 295.257L232.456 277.789L215.66 296.6L205.582 287.195L194.161 298.616L184.755 293.241Z" fill="#5C5DF7"/>
<rect x="217" y="164" width="16" height="61" fill="#D2D5F9"/>
<rect x="175" y="186" width="16" height="39" fill="#D2D5F9"/>
<rect x="237" y="144" width="16" height="81" fill="#7C85F4"/>
<rect x="197" y="144" width="16" height="81" fill="#7C85F4"/>
<rect x="257" y="121" width="16" height="104" fill="#D2D5F9"/>
<rect x="276" y="177" width="18" height="48" fill="#7C85F4"/>
<rect x="298" y="198" width="16" height="27" fill="#7C85F4"/>
<rect x="317" y="205" width="17" height="20" fill="#D2D5F9"/>
<path d="M494.016 129.984C482.607 118.575 467.134 112.166 451 112.166C434.866 112.166 419.393 118.575 407.984 129.984C396.576 141.392 390.166 156.866 390.166 173C390.166 189.134 396.576 204.607 407.984 216.016L424.378 199.622C417.317 192.561 413.351 182.985 413.351 173C413.351 163.015 417.317 153.438 424.378 146.378C431.438 139.317 441.015 135.35 451 135.35C460.985 135.35 470.561 139.317 477.622 146.378L494.016 129.984Z" fill="#D2D5F9"/>
<path d="M401.521 208.391C407.294 216.462 414.954 222.999 423.833 227.43C432.712 231.862 442.54 234.054 452.46 233.816L451.904 210.638C445.764 210.786 439.681 209.429 434.186 206.686C428.691 203.944 423.951 199.898 420.378 194.903L401.521 208.391Z" fill="#7C85F4"/>
<path d="M511.282 164.827C509.338 150.486 502.345 137.308 491.559 127.66L476.101 144.939C482.777 150.911 487.105 159.066 488.308 167.941L511.282 164.827Z" fill="#5C5DF7"/>
<path d="M495.26 214.735C501.747 207.855 506.541 199.558 509.262 190.502C511.982 181.446 512.554 171.88 510.932 162.564L488.091 166.541C489.095 172.307 488.741 178.227 487.057 183.832C485.374 189.436 482.407 194.571 478.392 198.829L495.26 214.735Z" fill="#C3D9FE"/>
<path d="M446.53 233.669C455.96 234.363 465.423 232.85 474.166 229.249C482.909 225.649 490.693 220.059 496.899 212.925L479.406 197.709C475.566 202.124 470.748 205.583 465.337 207.812C459.926 210.041 454.07 210.977 448.233 210.547L446.53 233.669Z" fill="#5C5DF7"/>
<rect x="513.284" y="109.83" width="22.8425" height="2.68735" fill="#C3D9FE"/>
<rect x="513.284" y="113.861" width="22.8425" height="2.68735" fill="#C3D9FE"/>
<rect x="513.284" y="117.892" width="22.8425" height="2.68735" fill="#C3D9FE"/>
<rect x="513.284" y="121.923" width="22.8425" height="2.68735" fill="#C3D9FE"/>
<rect x="375" y="274" width="77" height="33" fill="#C3D9FE"/>
<rect x="459" y="274" width="77" height="33" fill="#C3D9FE"/>
<path d="M579.251 214.126L575.22 213.455L575.892 216.814H578.579L579.251 214.126Z" fill="#F3A185"/>
<path d="M542.172 235.463V230.76H538.813V234.791L542.172 235.463Z" fill="#F3A185"/>
<path d="M577.78 224.714C576.436 224.714 575.521 218.984 579.124 213.964L582.483 215.98C580.431 219.512 579.124 224.714 577.78 224.714Z" fill="#3C4153"/>
<path d="M532.767 237.479C532.767 236.135 535.554 233.312 542.844 234.119V237.479C542.844 237.479 532.767 238.822 532.767 237.479Z" fill="#3C4153"/>
<path d="M537.47 111.173C523.158 104.534 526.602 116.875 536.798 112.517L537.47 111.173Z" fill="#3C4153"/>
<path d="M573.749 180.373C571.291 173.537 569.718 170.967 567.702 166.936C565.687 162.905 562.999 168.952 562.999 168.952L572.405 183.06C572.405 183.06 577.78 187.091 578.452 185.747C579.123 184.404 578.109 180.91 573.749 180.373Z" fill="#F3A185"/>
<path d="M522.689 132.672C524.033 134.016 525.377 135.36 525.377 135.36L531.423 132.672C531.423 132.672 527.392 130.657 528.064 129.985C528.736 129.313 530.079 115.205 530.079 115.205C530.079 115.205 537.47 113.189 536.126 111.173C534.782 109.158 530.751 107.814 528.736 113.861C526.72 119.907 521.345 131.329 522.689 132.672Z" fill="#F3A185"/>
<path d="M534.782 204.559C533.769 188.952 534.771 182.592 539.485 175.67L552.25 186.419L542.844 199.856C545.349 213.893 544.198 220.023 542.844 231.432H538.813L534.782 204.559Z" fill="#3839C1"/>
<path d="M558.297 178.357L538.813 175.67L550.906 204.559C560.446 213.543 565.947 214.948 575.764 217.324L576.436 213.293C569.557 209.565 565.722 207.661 558.297 199.184C559.516 188.752 559.219 184.751 558.297 178.357Z" fill="#5C5DF7"/>
<path d="M530.751 132L524.705 134.687C527.909 139.14 530.504 141.758 537.47 146.78C537.243 158.076 537.65 164.681 538.141 176.341L558.968 180.372C558.43 172.002 559.103 167.358 556.281 158.873L562.999 168.951L567.702 166.936C565.836 158.38 563.82 153.65 556.953 145.437L530.751 132Z" fill="#7C85F4"/>
<ellipse cx="549.933" cy="132.44" rx="5.3747" ry="7.47993" transform="rotate(30.5739 549.933 132.44)" fill="#F3A185"/>
<path d="M543.516 137.375C539.485 142.75 533.109 145.288 532.767 150.14C532.425 154.992 536.364 154.538 539.485 156.186C543.262 158.18 546.37 160.02 550.234 158.202C561.656 152.827 561.919 119.302 550.234 125.954C544.534 129.199 547.547 132 543.516 137.375Z" fill="#233075"/>
<path d="M224.394 44.6617C221.26 42.9147 219.49 43.0357 216.332 43.318C216.702 45.5684 215.376 46.5254 221.706 47.349C222.365 47.3136 223.722 49.3646 225.065 50.0364C226.409 50.7082 224.394 44.6617 224.394 44.6617Z" fill="#E38E71"/>
<path d="M212.301 39.2868C211.629 31.8966 210.543 27.1067 208.27 20.4753L211.629 45.3333L217.675 49.3643V43.3178C214.503 41.9759 213.973 42.029 212.301 39.2868Z" fill="#1C2446"/>
<path d="M223.913 44.4426C220.981 42.3705 218.808 42.5636 214.988 42.7632C216.316 45.6029 217.041 47.2133 222 46.6819C222 46.6819 223.347 50.6701 223.913 48.9211C224.479 47.1721 224.625 46.1916 223.913 44.4426Z" fill="#F3A185"/>
<path d="M221.034 105.127C219.019 103.783 209.613 96.3931 209.613 96.3931C206.895 98.1327 206.292 99.1715 206.254 101.096C206.216 103.02 209.608 104.23 212.301 105.127C215.536 106.206 223.05 106.471 221.034 105.127Z" fill="#3C4153"/>
<path d="M239.846 107.142C239.846 105.799 228.425 99.0804 227.081 99.7523C225.737 100.424 225.064 100.355 225.065 101.768C225.069 104.759 228.286 105.488 231.112 106.471C234.59 107.68 239.846 108.486 239.846 107.142Z" fill="#3C4153"/>
<path d="M213.644 99.7525V95.7215L209.613 94.3778V98.4088C210.655 100.88 211.793 99.4437 213.644 99.7525Z" fill="#F3A185"/>
<path d="M227.081 100.424V97.0652L231.784 96.3933V102.44C229.605 102.335 228.584 101.88 227.081 100.424Z" fill="#F3A185"/>
<path d="M232.456 97.7366L226.409 58.77L219.019 70.1912L226.409 97.7366H232.456Z" fill="#181F3F"/>
<path d="M231.112 52.7235C216.763 47.7824 208.659 46.6812 194.161 46.0051C192.896 54.6018 192.284 59.3992 216.332 62.1292C210.569 77.1399 211.117 82.7255 208.941 95.0492L214.316 97.0647C221.769 77.6527 231.578 61.3646 231.112 52.7235Z" fill="#2D3971"/>
<path d="M230.44 50.708L213.644 48.0207V49.3643L231.784 52.7235L237.83 31.8966L236.487 31.2247L230.44 50.708Z" fill="#3C4153"/>
<path d="M189.458 35.2558C188.275 29.8018 192.119 24.586 203.567 13.0852L208.27 16.4444L211.413 41.069C213.048 41.6053 214.878 42.1162 217.003 42.646L217.003 47.3489C217.003 47.3489 214.986 46.8407 212.041 45.9901L212.301 48.0207H194.161C194.164 44.9876 194.372 42.2569 194.75 39.6987C191.856 38.2317 189.772 36.7021 189.458 35.2558Z" fill="#222B53"/>
<path d="M204.91 25.8501C195.427 33.589 199.002 37.5205 209.613 41.3023M195.505 38.615C200.97 42.9591 200.849 41.6472 212.301 45.3334" stroke="#273368"/>
<path d="M202.223 14.429L205.582 9.05432L208.27 12.4135C208.27 12.4135 208.27 17.2681 206.254 18.46C204.238 19.652 202.223 14.429 202.223 14.429Z" fill="#F5B8A3"/>
<path d="M210.957 15.1009C212.972 14.4291 213.36 10.1641 213.644 4.35152C209.75 2.47566 207.543 2.70323 203.567 5.69519C204.123 11.1502 208.941 15.7727 210.957 15.1009Z" fill="#F3A185"/>
<path d="M208.269 4.35135C207.024 6.82709 203.566 7.71053 202.895 7.0387C202.223 6.36686 201.551 4.35135 202.895 2.33584C204.238 0.320326 206.926 2.33584 206.926 2.33584C210.599 -0.14473 216.331 0.992163 216.331 2.33584C216.331 3.67951 214.102 7.12272 208.269 4.35135Z" fill="#333333"/>
<path d="M329.872 336.239V332.88H333.903V336.239H329.872Z" fill="#F3A185"/>
<path d="M312.404 336.239V332.88H308.373V336.239H312.404Z" fill="#F3A185"/>
<path d="M342.416 339.598C343.574 335.588 340.304 334.995 329.612 335.989V339.598H342.416Z" fill="#3C4153"/>
<path d="M321.525 339.598C321.875 335.468 318.161 335.047 308.047 335.989L307.701 339.598H321.525Z" fill="#3C4153"/>
<path d="M331.216 246.885C332.121 240.326 332.652 236.648 332.559 230.089L335.919 228.073C337.137 235.406 337.292 239.528 337.262 246.885H331.216Z" fill="#E38E71"/>
<path d="M345.324 218.667C337.857 223.023 333.769 226.41 326.513 232.776C335.989 229.858 340.963 228.127 348.683 224.714C348.535 221.763 348.255 220.209 345.324 218.667Z" fill="#3C4153"/>
<path d="M321.138 243.525V248.9L326.513 246.885V242.182L321.138 243.525Z" fill="#F5B8A3"/>
<path d="M329.2 240.838C328.26 244.37 324.251 243.879 320.466 244.198C319.038 238.123 319.485 234.975 323.826 230.089C325.309 233.007 330.354 236.504 329.2 240.838Z" fill="#F3A185"/>
<path d="M320.466 236.807C318.763 239.362 326.598 244.33 323.154 244.869C319.709 245.407 304.399 237.349 320.466 228.745C320.466 228.745 323.685 226.659 325.169 227.401C327.268 228.451 322.703 230.44 322.482 232.776C322.278 234.93 325.771 237.205 323.826 238.15C322.622 238.735 321.81 234.791 320.466 236.807Z" fill="#233075"/>
<path d="M332.559 227.402C334.45 228.209 335.3 227.6 336.59 225.386C333.954 224.047 332.995 224.338 332.559 227.402Z" fill="#E38E71"/>
<path d="M341.293 243.525C339.35 244.238 338.164 244.684 335.919 245.541L340.621 252.259L346.668 248.9C347.12 241.562 346.545 237.445 343.981 230.089L344.652 225.386C342.143 223.373 340.815 223.165 338.606 224.714L341.293 230.089C342.283 236.573 342.361 239.612 341.293 243.525Z" fill="#F3A185"/>
<path d="M333.231 277.118H317.107L316.435 252.26C319.766 246.071 325.723 245.34 336.59 244.198L341.293 252.26C338.087 254.55 335.956 255.137 331.888 255.619C333.451 264.12 333.671 268.82 333.231 277.118Z" fill="#C3D9FE"/>
<path d="M318.451 300.631C317.472 294.761 315.812 288.959 317.107 276.445L329.2 295.929C325.557 310.384 321.197 318.696 313.076 333.551H307.701C311.066 320.985 312.902 313.957 318.451 300.631Z" fill="#0748AE"/>
<path d="M334.575 333.551H329.2C327.292 318.051 330.548 313.776 329.2 298.616L317.107 276.445H332.559C344.547 298.735 338.986 311.245 334.575 333.551Z" fill="#1353B7"/>
<path d="M460.88 244.869C459.816 236.998 459.767 232.585 460.88 224.714L470.286 238.15C466.213 240.053 464.125 241.472 460.88 244.869Z" fill="#233075"/>
<path d="M468.942 240.838L467.599 234.12L470.958 230.089L472.301 239.494L468.942 240.838Z" fill="#F5B8A3"/>
<path d="M472.301 227.401C471.656 234.189 468.942 238.151 466.255 237.479C463.568 236.807 460 228 461.5 224L472.301 227.401Z" fill="#F3A185"/>
<path d="M473.645 228.073C472.126 215.828 461.552 222.026 460.88 224.714C461.974 226.302 462.831 227.164 469.614 228.073C469.309 232.427 470.483 234.353 471.63 238.15C473.519 236.604 474.368 235.281 473.645 228.073Z" fill="#233075"/>
<path d="M458.865 254.946C460.196 249.883 461.646 247.277 464.911 242.853L462.896 258.305L458.865 254.946Z" fill="#F3A185"/>
<path d="M471.63 339.598L478.348 333.551L483 334L478.348 339.598H471.63Z" fill="#F3A185"/>
<path d="M465.583 332.879L471 332.5L465.583 339.598H459.536L465.583 332.879Z" fill="#F3A185"/>
<path d="M463.568 272.414H471.63L477.676 277.789L470.958 332.879H465.583L463.568 272.414Z" fill="#0A1974"/>
<path d="M477.661 334.223L466.927 271.742H482.379C484.203 283.013 483.82 289.181 481.035 299.959C485.178 311.016 484.6 319.51 483.051 334.223H477.661Z" fill="#061EA9"/>
<path d="M472.973 237.479C471.297 240.251 470.262 240.619 468.27 239.494L464.911 273.758H474.989L472.973 237.479Z" fill="#C3D9FE"/>
<path d="M472.301 277.789C470.671 251.617 470.369 244.089 473 237.5C476.232 239.438 477.969 238.59 479.02 240.838C483.527 261.471 484.464 268.254 485.738 277.789H472.301Z" fill="#3A51D7"/>
<path d="M466.255 277.789L468.27 239.494C461.102 245.707 461.161 257.015 460.88 276.445L466.255 277.789Z" fill="#3A51D7"/>
<path d="M473.645 260.321C473.497 245.451 473.47 241.547 478.348 240.838C483.226 240.129 481.951 268.473 477.004 268.383C472.058 268.294 462.896 260.993 462.896 260.993V256.29L473.645 260.321Z" fill="#F3A185"/>
<path d="M457.521 267.04L456.177 252.259H465.583L466.927 267.04H457.521Z" fill="#E0E0E0" stroke="#E0E0E0" stroke-linecap="round" stroke-linejoin="round"/>
<path d="M455.505 256.29C461.415 255.105 459.537 260.321 456.177 263.68L455.505 256.29Z" fill="#F3A185"/>
<path d="M483.051 340.27V334.223C481.525 334.282 480.762 334.856 479.692 337.582C477.33 338.123 476.006 338.453 473.645 337.582C471.497 338.356 471.535 339.102 470.958 340.27H479.02C480.364 339.429 480.63 338.775 481.035 337.582V340.27H483.051Z" fill="#3C4153"/>
<path d="M470.286 340.27V333.551C468.484 334.111 467.59 334.944 466.255 337.582C463.886 338.708 463 338.404 461.552 337.582C459.349 338.317 458.721 339.122 458.193 340.941H465.583C467.343 339.725 467.748 338.965 468.27 337.582V340.27H470.286Z" fill="#3C4153"/>
</svg>
