<svg width="65" height="65" viewBox="0 0 65 65" fill="none" xmlns="http://www.w3.org/2000/svg">
<path d="M32.5 65C50.4493 65 65 50.4493 65 32.5C65 14.5507 50.4493 0 32.5 0C14.5507 0 0 14.5507 0 32.5C0 50.4493 14.5507 65 32.5 65Z" fill="#ECF3FF"/>
<path d="M50.0179 15.3812H14.9822C14.3515 15.3812 13.8495 15.896 13.8495 16.5139V44.3545C13.8495 44.9852 14.3644 45.4871 14.9822 45.4871H50.0179C50.6486 45.4871 51.1505 44.9723 51.1505 44.3545V16.5139C51.1505 15.8832 50.6486 15.3812 50.0179 15.3812Z" fill="#94B2E4"/>
<path d="M48.4732 18.0327H16.5267V39.502H48.4732V18.0327Z" fill="white"/>
<path d="M37.8416 45.5H27.1584V50.1337H37.8416V45.5Z" fill="#CED5E0"/>
<path d="M43.9039 53.6861H21.096C21.096 51.7168 22.692 50.1337 24.6485 50.1337H40.3515C42.3079 50.1208 43.9039 51.7168 43.9039 53.6861Z" fill="#94B2E4"/>
<path d="M32.5 43.4921C33.09 43.4921 33.5683 43.0138 33.5683 42.4238C33.5683 41.8337 33.09 41.3554 32.5 41.3554C31.91 41.3554 31.4317 41.8337 31.4317 42.4238C31.4317 43.0138 31.91 43.4921 32.5 43.4921Z" fill="#3C4153"/>
<path d="M27.4545 25.4594H23.5931V36.799H27.4545V25.4594Z" fill="#3C4153"/>
<path d="M34.4307 21.0446H30.5693V36.7861H34.4307V21.0446Z" fill="#F0F0FA"/>
<path d="M41.4197 11.3139H37.5583V36.7862H41.4197V11.3139Z" fill="#F0F0FA"/>
</svg>
