<svg width="65" height="65" viewBox="0 0 65 65" fill="none" xmlns="http://www.w3.org/2000/svg">
<path d="M32.5 65C50.4493 65 65 50.4493 65 32.5C65 14.5507 50.4493 0 32.5 0C14.5507 0 0 14.5507 0 32.5C0 50.4493 14.5507 65 32.5 65Z" fill="#ECF3FF"/>
<path d="M29.0248 30.3891L25.7297 24.6871L29.0248 18.9723H35.6149L38.9099 24.6871L35.6149 30.3891H29.0248Z" fill="#3C4153"/>
<path d="M42.9 8.70099H22.0228V17.6723H42.9V8.70099Z" fill="#C1C7DD"/>
<path d="M42.9772 8.70099L32.5643 18.9723L39.2317 28.9861L46.5554 15.4842L42.9772 8.70099Z" fill="white"/>
<path d="M22.0228 8.70099L32.5643 18.9723L25.7683 28.9861L18.4445 15.4842L22.0228 8.70099Z" fill="white"/>
<path d="M38.1505 52.0643L32.2168 58.3198L26.4119 52.0643L29.0247 30.3891H35.5376L38.1505 52.0643Z" fill="#94B2E4"/>
</svg>
