<svg width="65" height="65" viewBox="0 0 65 65" fill="none" xmlns="http://www.w3.org/2000/svg">
<circle cx="32.5" cy="32.5" r="32.5" fill="#D7E6FF"/>
<path d="M33.7574 42.2117H26.6858V45.9159H33.7574V42.2117Z" fill="#445EA0"/>
<path d="M28.4685 42.2117H26.6858V45.9159H28.4685V42.2117Z" fill="#2E4C89"/>
<path d="M38.4676 45.8264H21.4606C21.2084 45.8264 21.0023 46.0326 21.0023 46.2847V48.5821C21.0023 48.8342 21.2085 49.0405 21.4606 49.0405H38.4676V45.8264Z" fill="#293D7C"/>
<path d="M22.7849 48.582V46.2846C22.7849 46.0325 22.9912 45.8263 23.2433 45.8263H21.4606C21.2084 45.8263 21.0023 46.0325 21.0023 46.2846V48.582C21.0023 48.8341 21.2085 49.0404 21.4606 49.0404H23.2432C22.9912 49.0404 22.7849 48.8341 22.7849 48.582Z" fill="#1A2B63"/>
<path d="M49.9853 15.2975H10.4584C10.2063 15.2975 10 15.5038 10 15.7559V41.8433C10 42.0955 10.2063 42.3017 10.4584 42.3017H38.4675V28.5768C38.4675 28.2301 38.7496 27.9479 39.0964 27.9479H50.4437V15.7559C50.4437 15.5038 50.2374 15.2975 49.9853 15.2975Z" fill="#293D7C"/>
<path d="M12.0121 37.7181C12.0121 37.8693 12.1359 37.993 12.2872 37.993H38.4675V28.5768C38.4675 28.2301 38.7496 27.9479 39.0964 27.9479H48.4316V19.7928H12.0121V37.7181Z" fill="white"/>
<path d="M13.7949 37.7181V19.7928H12.0121V37.7181C12.0121 37.8693 12.1359 37.993 12.2872 37.993H14.0699C13.9186 37.993 13.7949 37.8693 13.7949 37.7181Z" fill="#3B46F4"/>
<path d="M30.2221 41.3765C30.9056 41.3765 31.4596 40.8224 31.4596 40.139C31.4596 39.4555 30.9056 38.9015 30.2221 38.9015C29.5387 38.9015 28.9846 39.4555 28.9846 40.139C28.9846 40.8224 29.5387 41.3765 30.2221 41.3765Z" fill="#445EA0"/>
<path d="M38.4676 30.0483H33.6678C33.5195 30.0483 33.3983 30.1696 33.3983 30.3178V35.676C33.3983 35.8242 33.5195 35.9455 33.6678 35.9455H38.4676V30.0483Z" fill="#C3DDF4"/>
<path d="M35.1809 35.676V30.3178C35.1809 30.1696 35.3022 30.0483 35.4505 30.0483H33.6678C33.5195 30.0483 33.3983 30.1696 33.3983 30.3178V35.676C33.3983 35.8242 33.5195 35.9455 33.6678 35.9455H35.4505C35.3022 35.9455 35.1809 35.8242 35.1809 35.676Z" fill="#AEC1ED"/>
<path d="M39.0964 27.9479H43.2848V22.0737C43.2848 21.8267 43.0826 21.6245 42.8356 21.6245H17.6082C17.3611 21.6245 17.1589 21.8267 17.1589 22.0737V28.0506C17.1589 28.2977 17.3611 28.4998 17.6082 28.4998H38.4728C38.5109 28.1893 38.7759 27.9479 39.0964 27.9479Z" fill="#F0F0FA"/>
<path d="M18.9416 28.0505V22.0737C18.9416 21.8266 19.1438 21.6244 19.3908 21.6244H17.6082C17.3611 21.6244 17.1589 21.8266 17.1589 22.0737V28.0505C17.1589 28.2976 17.3611 28.4997 17.6082 28.4997H19.3908C19.1438 28.4997 18.9416 28.2976 18.9416 28.0505Z" fill="#5C5DF7"/>
<path d="M48.1566 17.6352H12.2872C12.1359 17.6352 12.0121 17.7589 12.0121 17.9103V19.8826H48.4316V17.9103C48.4316 17.7589 48.3078 17.6352 48.1566 17.6352Z" fill="#3B46F4"/>
<path d="M14.0699 17.6352H12.2872C12.1359 17.6352 12.0121 17.7589 12.0121 17.9103V19.8826H13.7948V17.9103C13.7949 17.7589 13.9186 17.6352 14.0699 17.6352Z" fill="#3C4153"/>
<path d="M25.4086 31.4708H17.8465C17.4744 31.4708 17.1727 31.1692 17.1727 30.7969C17.1727 30.4247 17.4744 30.1231 17.8465 30.1231H25.4086C25.7808 30.1231 26.0825 30.4247 26.0825 30.7969C26.0825 31.1692 25.7808 31.4708 25.4086 31.4708Z" fill="#7C85F4"/>
<path d="M25.4086 33.6708H17.8465C17.4744 33.6708 17.1727 33.3692 17.1727 32.9969C17.1727 32.6247 17.4744 32.3231 17.8465 32.3231H25.4086C25.7808 32.3231 26.0825 32.6247 26.0825 32.9969C26.0825 33.3691 25.7808 33.6708 25.4086 33.6708Z" fill="#7C85F4"/>
<path d="M25.4086 35.8708H17.8465C17.4744 35.8708 17.1727 35.5692 17.1727 35.1969C17.1727 34.8247 17.4744 34.5231 17.8465 34.5231H25.4086C25.7808 34.5231 26.0825 34.8247 26.0825 35.1969C26.0825 35.5692 25.7808 35.8708 25.4086 35.8708Z" fill="#7C85F4"/>
<path d="M31.3434 31.4708H27.4508C27.0787 31.4708 26.777 31.1692 26.777 30.7969C26.777 30.4247 27.0787 30.1231 27.4508 30.1231H31.3434C31.7155 30.1231 32.0172 30.4247 32.0172 30.7969C32.0172 31.1692 31.7155 31.4708 31.3434 31.4708Z" fill="#7C85F4"/>
<path d="M31.3434 33.6708H27.4508C27.0787 33.6708 26.777 33.3692 26.777 32.9969C26.777 32.6247 27.0787 32.3231 27.4508 32.3231H31.3434C31.7155 32.3231 32.0172 32.6247 32.0172 32.9969C32.0172 33.3691 31.7155 33.6708 31.3434 33.6708Z" fill="#7C85F4"/>
<path d="M31.3434 35.8708H27.4508C27.0787 35.8708 26.777 35.5692 26.777 35.1969C26.777 34.8247 27.0787 34.5231 27.4508 34.5231H31.3434C31.7155 34.5231 32.0172 34.8247 32.0172 35.1969C32.0172 35.5692 31.7155 35.8708 31.3434 35.8708Z" fill="#7C85F4"/>
<path d="M55.2812 27.8581C55.6765 27.8581 55.9999 28.1815 55.9999 28.5768V50.2983C55.9999 50.6936 55.6765 51.0171 55.2812 51.0171H39.0964C38.7011 51.0171 38.3776 50.6936 38.3776 50.2983V28.5768C38.3776 28.1815 38.7011 27.8581 39.0964 27.8581H55.2812Z" fill="#445EA0"/>
<path d="M40.3283 48.1948C40.0812 48.1948 39.8791 47.9927 39.8791 47.7456V29.692C39.8791 29.4449 40.0812 29.2427 40.3283 29.2427H54.0495C54.2966 29.2427 54.4987 29.4449 54.4987 29.692V47.7456C54.4987 47.9927 54.2966 48.1948 54.0495 48.1948H40.3283Z" fill="white"/>
<path d="M41.6618 47.7456V29.692C41.6618 29.4449 41.8639 29.2427 42.111 29.2427H40.3283C40.0812 29.2427 39.8791 29.4449 39.8791 29.692V47.7456C39.8791 47.9927 40.0812 48.1948 40.3283 48.1948H42.111C41.8639 48.1948 41.6618 47.9927 41.6618 47.7456Z" fill="#7C85F4"/>
<path d="M46.3478 49.9917C46.1008 49.9917 45.8986 49.7896 45.8986 49.5425V49.3677C45.8986 49.1207 46.1008 48.9185 46.3478 48.9185H48.03C48.2771 48.9185 48.4792 49.1207 48.4792 49.3677V49.5425C48.4792 49.7896 48.2771 49.9917 48.03 49.9917H46.3478Z" fill="#445EA0"/>
<path d="M54.4987 30.9761V29.692C54.4987 29.4449 54.2966 29.2427 54.0495 29.2427H40.3283C40.0812 29.2427 39.8791 29.4449 39.8791 29.692V30.9761H54.4987Z" fill="#7C85F4"/>
<path d="M42.111 29.2427H40.3283C40.0812 29.2427 39.8791 29.4449 39.8791 29.692V30.9761H41.6618V29.692C41.6618 29.4449 41.8639 29.2427 42.111 29.2427Z" fill="#3C4153"/>
<path d="M50.2511 39.1932H44.1266C43.7545 39.1932 43.4528 38.8916 43.4528 38.5194C43.4528 38.1472 43.7545 37.8456 44.1266 37.8456H50.2511C50.6233 37.8456 50.925 38.1472 50.925 38.5194C50.925 38.8915 50.6233 39.1932 50.2511 39.1932Z" fill="#7C85F4"/>
<path d="M50.2511 41.271H44.1266C43.7545 41.271 43.4528 40.9694 43.4528 40.5972C43.4528 40.2251 43.7545 39.9234 44.1266 39.9234H50.2511C50.6233 39.9234 50.925 40.2251 50.925 40.5972C50.925 40.9694 50.6233 41.271 50.2511 41.271Z" fill="#7C85F4"/>
<path d="M50.2511 43.3487H44.1266C43.7545 43.3487 43.4528 43.0471 43.4528 42.6748C43.4528 42.3027 43.7545 42.001 44.1266 42.001H50.2511C50.6233 42.001 50.925 42.3027 50.925 42.6748C50.925 43.0471 50.6233 43.3487 50.2511 43.3487Z" fill="#7C85F4"/>
<path d="M53.1032 36.2575C53.1032 36.5045 52.901 36.7067 52.6539 36.7067H41.724C41.4769 36.7067 41.2748 36.5045 41.2748 36.2575V32.5519C41.2748 32.3049 41.4769 32.1027 41.724 32.1027H52.6539C52.901 32.1027 53.1032 32.3049 53.1032 32.5519V36.2575Z" fill="#F0F0FA"/>
<path d="M43.0575 36.2575V32.5519C43.0575 32.3049 43.2596 32.1027 43.5067 32.1027H41.724C41.4769 32.1027 41.2748 32.3049 41.2748 32.5519V36.2575C41.2748 36.5045 41.4769 36.7067 41.724 36.7067H43.5067C43.2596 36.7067 43.0575 36.5045 43.0575 36.2575Z" fill="#5C5DF7"/>
<path d="M51.486 46.7835C51.486 47.0305 51.2838 47.2327 51.0367 47.2327H43.341C43.0939 47.2327 42.8918 47.0305 42.8918 46.7835V45.2642C42.8918 45.0171 43.0939 44.815 43.341 44.815H51.0367C51.2838 44.815 51.486 45.0171 51.486 45.2642V46.7835Z" fill="#F0F0FA"/>
<path d="M44.6745 46.7835V45.2642C44.6745 45.0171 44.8766 44.815 45.1237 44.815H43.341C43.0939 44.815 42.8918 45.0171 42.8918 45.2642V46.7835C42.8918 47.0305 43.0939 47.2327 43.341 47.2327H45.1237C44.8766 47.2327 44.6745 47.0305 44.6745 46.7835Z" fill="#5C5DF7"/>
</svg>
